<?xml version="1.0" encoding="UTF-8"?>
<!DOCTYPE svg PUBLIC "-//W3C//DTD SVG 1.1//EN" "http://www.w3.org/Graphics/SVG/1.1/DTD/svg11.dtd">
<svg xmlns="http://www.w3.org/2000/svg" version="1.1" width="40px" height="40px" style="shape-rendering:geometricPrecision; text-rendering:geometricPrecision; image-rendering:optimizeQuality; fill-rule:evenodd; clip-rule:evenodd" xmlns:xlink="http://www.w3.org/1999/xlink">
<g><path style="opacity:0.333" fill="#0f1010" d="M 39.5,15.5 C 39.5,17.5 39.5,19.5 39.5,21.5C 33.9464,35.939 23.613,40.7723 8.5,36C 1.00999,28.6662 -0.490007,20.1662 4,10.5C 14.986,-1.49621 25.986,-1.49621 37,10.5C 37.7568,12.3146 38.5902,13.9812 39.5,15.5 Z"/></g>
<g><path style="opacity:1" fill="#cedddd" d="M 14.5,3.5 C 24.1753,2.09021 31.6753,5.42355 37,13.5C 38.0382,30.1268 30.2049,37.6268 13.5,36C 3.67488,31.9417 0.508216,24.775 4,14.5C 6.35659,9.64549 9.85659,5.97883 14.5,3.5 Z"/></g>
<g><path style="opacity:0.745" fill="#333737" d="M 16.5,8.5 C 18.9664,7.36594 21.633,7.19927 24.5,8C 25.9423,8.37675 26.9423,9.21009 27.5,10.5C 24.0336,8.90837 20.3669,8.24171 16.5,8.5 Z"/></g>
<g><path style="opacity:0.765" fill="#3e4242" d="M 14.5,9.5 C 14.0269,10.9063 13.0269,11.573 11.5,11.5C 11.9731,10.0937 12.9731,9.42702 14.5,9.5 Z"/></g>
<g><path style="opacity:0.843" fill="#4b4f4f" d="M 11.5,11.5 C 11.2624,13.4044 10.2624,14.7377 8.5,15.5C 8.73758,13.5956 9.73758,12.2623 11.5,11.5 Z"/></g>
<g><path style="opacity:1" fill="#becbcb" d="M 16.5,8.5 C 20.3669,8.24171 24.0336,8.90837 27.5,10.5C 28.8333,10.5 29.5,11.1667 29.5,12.5C 29.6596,14.153 30.3263,15.4863 31.5,16.5C 31.2444,19.5979 30.5778,22.5979 29.5,25.5C 27.9468,27.385 25.9468,28.385 23.5,28.5C 21.8806,26.0747 22.2139,24.0747 24.5,22.5C 25.4959,22.5858 26.3292,22.2524 27,21.5C 27.4974,18.854 27.6641,16.1873 27.5,13.5C 22.453,13.6625 17.453,13.3292 12.5,12.5C 12.0139,15.3817 12.0139,18.0483 12.5,20.5C 13.8333,22.1667 15.1667,23.8333 16.5,25.5C 14.6096,25.7035 13.1096,25.0368 12,23.5C 10.7936,26.838 11.9603,28.6713 15.5,29C 14.7562,30.0386 13.7562,30.5386 12.5,30.5C 11.1363,28.8089 9.80299,27.1423 8.5,25.5C 7.16667,22.1667 7.16667,18.8333 8.5,15.5C 10.2624,14.7377 11.2624,13.4044 11.5,11.5C 13.0269,11.573 14.0269,10.9063 14.5,9.5C 14.8417,8.66175 15.5084,8.32842 16.5,8.5 Z"/></g>
<g><path style="opacity:1" fill="#253751" d="M 24.5,22.5 C 22.2139,24.0747 21.8806,26.0747 23.5,28.5C 23.8417,29.3382 24.5084,29.6716 25.5,29.5C 24.2196,30.9313 22.5529,31.5979 20.5,31.5C 19.1667,31.5 17.8333,31.5 16.5,31.5C 16.0651,29.2967 16.0651,27.2967 16.5,25.5C 15.1667,23.8333 13.8333,22.1667 12.5,20.5C 12.9617,18.2433 13.9617,16.2433 15.5,14.5C 18.6982,14.545 21.8649,14.545 25,14.5C 27.1074,17.3707 26.9407,20.0373 24.5,22.5 Z"/></g>
<g><path style="opacity:0.749" fill="#1e2329" d="M 24.5,22.5 C 26.9407,20.0373 27.1074,17.3707 25,14.5C 21.8649,14.545 18.6982,14.545 15.5,14.5C 13.9617,16.2433 12.9617,18.2433 12.5,20.5C 12.0139,18.0483 12.0139,15.3817 12.5,12.5C 17.453,13.3292 22.453,13.6625 27.5,13.5C 27.6641,16.1873 27.4974,18.854 27,21.5C 26.3292,22.2524 25.4959,22.5858 24.5,22.5 Z"/></g>
<g><path style="opacity:0.749" fill="#323535" d="M 29.5,12.5 C 31.1042,13.287 31.7709,14.6203 31.5,16.5C 30.3263,15.4863 29.6596,14.153 29.5,12.5 Z"/></g>
<g><path style="opacity:0.82" fill="#2d3030" d="M 31.5,16.5 C 32.8891,19.8826 32.2224,22.8826 29.5,25.5C 30.5778,22.5979 31.2444,19.5979 31.5,16.5 Z"/></g>
<g><path style="opacity:0.761" fill="#1f2327" d="M 16.5,25.5 C 16.0651,27.2967 16.0651,29.2967 16.5,31.5C 17.8333,31.5 19.1667,31.5 20.5,31.5C 17.6596,32.9171 14.993,32.5838 12.5,30.5C 13.7562,30.5386 14.7562,30.0386 15.5,29C 11.9603,28.6713 10.7936,26.838 12,23.5C 13.1096,25.0368 14.6096,25.7035 16.5,25.5 Z"/></g>
<g><path style="opacity:0.761" fill="#393c3c" d="M 8.5,25.5 C 9.80299,27.1423 11.1363,28.8089 12.5,30.5C 9.70256,30.0334 8.36922,28.3667 8.5,25.5 Z"/></g>
<g><path style="opacity:0.8" fill="#697171" d="M 29.5,25.5 C 29.1667,27.8333 27.8333,29.1667 25.5,29.5C 24.5084,29.6716 23.8417,29.3382 23.5,28.5C 25.9468,28.385 27.9468,27.385 29.5,25.5 Z"/></g>
</svg>
