<?xml version="1.0" encoding="UTF-8"?>
<!DOCTYPE svg PUBLIC "-//W3C//DTD SVG 1.1//EN" "http://www.w3.org/Graphics/SVG/1.1/DTD/svg11.dtd">
<svg xmlns="http://www.w3.org/2000/svg" version="1.1" width="40px" height="40px" style="shape-rendering:geometricPrecision; text-rendering:geometricPrecision; image-rendering:optimizeQuality; fill-rule:evenodd; clip-rule:evenodd" xmlns:xlink="http://www.w3.org/1999/xlink">
<g><path style="opacity:0.876" fill="#0f141b" d="M 27.5,0.5 C 31.514,0.559988 34.6806,2.22665 37,5.5C 38.9476,15.5386 38.9476,25.5386 37,35.5C 35.5806,36.4601 34.0806,37.2935 32.5,38C 23.0654,38.9447 13.7321,38.6114 4.5,37C 3.66667,36.1667 2.83333,35.3333 2,34.5C 0.545798,24.1033 0.879131,13.77 3,3.5C 4.06743,2.80945 5.23409,2.30945 6.5,2C 13.6787,1.82854 20.6787,1.32854 27.5,0.5 Z"/></g>
<g><path style="opacity:1" fill="#4977ab" d="M 7.5,2.5 C 15.84,2.3336 24.1733,2.50027 32.5,3C 33.3333,3.83333 34.1667,4.66667 35,5.5C 36.6114,14.7321 36.9447,24.0654 36,33.5C 35.1667,34.3333 34.3333,35.1667 33.5,36C 24.1667,36.6667 14.8333,36.6667 5.5,36C 5,35.5 4.5,35 4,34.5C 2.38865,25.2679 2.05532,15.9346 3,6.5C 4.24992,4.8065 5.74992,3.47317 7.5,2.5 Z"/></g>
<g><path style="opacity:1" fill="#c9d7d7" d="M 11.5,8.5 C 12.2341,9.70792 12.5674,11.0413 12.5,12.5C 11.1667,12.5 9.83333,12.5 8.5,12.5C 8.46765,10.3812 9.46765,9.04782 11.5,8.5 Z"/></g>
<g><path style="opacity:1" fill="#202a33" d="M 11.5,8.5 C 12.5862,8.61998 13.2528,9.28665 13.5,10.5C 13.4573,11.4164 13.1239,12.0831 12.5,12.5C 12.5674,11.0413 12.2341,9.70792 11.5,8.5 Z"/></g>
<g><path style="opacity:1" fill="#cedddd" d="M 19.5,17.5 C 19.8333,17.5 20.1667,17.5 20.5,17.5C 23.2516,17.7618 26.2516,17.7618 29.5,17.5C 31.2419,22.3026 31.9085,27.3026 31.5,32.5C 30.5,32.5 29.5,32.5 28.5,32.5C 28.665,29.1501 28.4983,25.8168 28,22.5C 25.146,19.9836 22.4793,20.3169 20,23.5C 20.0704,26.992 19.2371,29.992 17.5,32.5C 16.8917,27.0557 17.5583,22.0557 19.5,17.5 Z"/></g>
<g><path style="opacity:1" fill="#95a0a0" d="M 19.5,17.5 C 17.5583,22.0557 16.8917,27.0557 17.5,32.5C 16.5119,27.3595 16.1786,22.0262 16.5,16.5C 17.791,16.2627 18.791,16.596 19.5,17.5 Z"/></g>
<g><path style="opacity:1" fill="#1e2730" d="M 29.5,17.5 C 30.9311,17.8807 31.7645,18.8807 32,20.5C 32.499,24.8206 32.6657,29.1539 32.5,33.5C 30.901,33.7678 29.5676,33.4345 28.5,32.5C 29.5,32.5 30.5,32.5 31.5,32.5C 31.9085,27.3026 31.2419,22.3026 29.5,17.5 Z"/></g>
<g><path style="opacity:1" fill="#324357" d="M 20.5,17.5 C 20.1667,17.5 19.8333,17.5 19.5,17.5C 18.791,16.596 17.791,16.2627 16.5,16.5C 16.1786,22.0262 16.5119,27.3595 17.5,32.5C 19.2371,29.992 20.0704,26.992 20,23.5C 22.4793,20.3169 25.146,19.9836 28,22.5C 28.4983,25.8168 28.665,29.1501 28.5,32.5C 27.6805,29.6946 27.1805,26.6946 27,23.5C 24.7328,22.0652 22.7328,22.3985 21,24.5C 20.6987,27.5071 20.8654,30.5071 21.5,33.5C 19.5,33.5 17.5,33.5 15.5,33.5C 15.5,27.5 15.5,21.5 15.5,15.5C 17.7812,15.0773 19.4479,15.744 20.5,17.5 Z"/></g>
<g><path style="opacity:1" fill="#3e5167" d="M 7.5,15.5 C 9.5,15.5 11.5,15.5 13.5,15.5C 14.1646,21.477 14.498,27.477 14.5,33.5C 12.2075,33.7564 10.0408,33.4231 8,32.5C 7.50058,26.8431 7.33391,21.1764 7.5,15.5 Z"/></g>
<g><path style="opacity:1" fill="#d5e4e4" d="M 9.5,17.5 C 10.5,17.5 11.5,17.5 12.5,17.5C 12.5,22.5 12.5,27.5 12.5,32.5C 11.5,32.5 10.5,32.5 9.5,32.5C 9.5,27.5 9.5,22.5 9.5,17.5 Z"/></g>
</svg>
