<?xml version="1.0" encoding="UTF-8"?>
<!DOCTYPE svg PUBLIC "-//W3C//DTD SVG 1.1//EN" "http://www.w3.org/Graphics/SVG/1.1/DTD/svg11.dtd">
<svg xmlns="http://www.w3.org/2000/svg" version="1.1" width="1920px" height="898px" style="shape-rendering:geometricPrecision; text-rendering:geometricPrecision; image-rendering:optimizeQuality; fill-rule:evenodd; clip-rule:evenodd" xmlns:xlink="http://www.w3.org/1999/xlink">
<g><path style="opacity:1" fill="#48d0f1" d="M -0.5,-0.5 C 1.83333,-0.5 4.16667,-0.5 6.5,-0.5C 11.6454,6.12324 15.4787,13.4566 18,21.5C 19.3605,27.8022 20.5272,34.1356 21.5,40.5C 47.1453,30.7305 70.8119,34.2305 92.5,51C 97.7947,56.4472 102.461,62.2805 106.5,68.5C 131.426,57.5175 156.76,56.6842 182.5,66C 190.028,69.5958 197.361,73.4292 204.5,77.5C 258.339,62.8315 304.506,75.4981 343,115.5C 356.592,132.184 366.092,151.017 371.5,172C 372.5,172.667 373.5,172.667 374.5,172C 420.396,144.541 466.063,144.874 511.5,173C 532.91,188.401 548.243,208.401 557.5,233C 565.664,235.415 573.331,238.915 580.5,243.5C 611.053,222.636 643.72,218.803 678.5,232C 691.497,237.667 702.831,245.667 712.5,256C 713.333,256.167 714.167,256.333 715,256.5C 724.364,254.275 733.864,253.109 743.5,253C 785.387,215.624 833.053,206.291 886.5,225C 893.081,228.458 899.748,231.625 906.5,234.5C 939.029,227.033 969.696,231.699 998.5,248.5C 1040.72,235.358 1077.72,244.025 1109.5,274.5C 1133.67,266.903 1155.67,270.903 1175.5,286.5C 1179.95,280.551 1184.95,275.051 1190.5,270C 1192.22,268.441 1194.22,267.608 1196.5,267.5C 1210,217.162 1241.67,184.329 1291.5,169C 1333.07,158.04 1371.74,164.373 1407.5,188C 1417.1,186.809 1426.77,186.475 1436.5,187C 1443.24,187.613 1449.74,189.113 1456,191.5C 1469.3,172.94 1487.14,161.107 1509.5,156C 1535.08,100.028 1578.75,74.0279 1640.5,78C 1654.57,79.8558 1667.9,84.0224 1680.5,90.5C 1707.21,74.376 1734.54,73.376 1762.5,87.5C 1766.24,74.3376 1773.24,63.3376 1783.5,54.5C 1785.83,49.1753 1788.66,44.1753 1792,39.5C 1792.89,25.8313 1795.39,12.498 1799.5,-0.5C 1839.5,-0.5 1879.5,-0.5 1919.5,-0.5C 1919.5,16.8333 1919.5,34.1667 1919.5,51.5C 1915.93,53.5566 1912.77,56.2232 1910,59.5C 1905.83,65 1901.67,70.5 1897.5,76C 1844.52,79.9774 1806.85,105.977 1784.5,154C 1751.57,159.951 1727.57,177.785 1712.5,207.5C 1676.92,215.457 1647.92,233.79 1625.5,262.5C 1610.83,258.532 1596.17,258.532 1581.5,262.5C 1527.89,228.589 1474.89,229.422 1422.5,265C 1391.32,289.504 1373.82,321.671 1370,361.5C 1368.32,363.351 1366.48,365.018 1364.5,366.5C 1335.73,339.483 1303.4,334.316 1267.5,351C 1260.2,355.565 1253.37,360.731 1247,366.5C 1208.09,347.882 1173.75,354.216 1144,385.5C 1141.73,389.051 1139.23,392.384 1136.5,395.5C 1133.92,394.294 1131.42,392.961 1129,391.5C 1107.03,347.582 1071.53,322.082 1022.5,315C 976.269,312.075 937.603,327.742 906.5,362C 881.867,363.633 861.367,373.467 845,391.5C 834.161,383.58 821.995,379.913 808.5,380.5C 797.838,353.669 779.171,334.503 752.5,323C 747.228,321.131 741.894,319.465 736.5,318C 692.082,258.749 634.082,239.416 562.5,260C 548.429,265.533 535.429,272.866 523.5,282C 509.856,281.735 496.523,283.568 483.5,287.5C 458.939,258.424 427.939,247.424 390.5,254.5C 377.719,232.764 359.053,218.764 334.5,212.5C 310.367,153.074 266.034,124.907 201.5,128C 193.95,129.596 186.45,131.429 179,133.5C 148.006,107.424 114.006,102.758 77,119.5C 76.228,119.355 75.5613,119.022 75,118.5C 61.6902,90.3609 39.5236,77.6943 8.5,80.5C 8.47794,68.583 6.64461,56.9163 3,45.5C 2.4005,43.0904 1.23383,41.0904 -0.5,39.5C -0.5,26.1667 -0.5,12.8333 -0.5,-0.5 Z"/></g>
<g><path style="opacity:1" fill="#44ccee" d="M 6.5,-0.5 C 604.167,-0.5 1201.83,-0.5 1799.5,-0.5C 1795.39,12.498 1792.89,25.8313 1792,39.5C 1788.66,44.1753 1785.83,49.1753 1783.5,54.5C 1773.24,63.3376 1766.24,74.3376 1762.5,87.5C 1734.54,73.376 1707.21,74.376 1680.5,90.5C 1667.9,84.0224 1654.57,79.8558 1640.5,78C 1578.75,74.0279 1535.08,100.028 1509.5,156C 1487.14,161.107 1469.3,172.94 1456,191.5C 1449.74,189.113 1443.24,187.613 1436.5,187C 1426.77,186.475 1417.1,186.809 1407.5,188C 1371.74,164.373 1333.07,158.04 1291.5,169C 1241.67,184.329 1210,217.162 1196.5,267.5C 1194.22,267.608 1192.22,268.441 1190.5,270C 1184.95,275.051 1179.95,280.551 1175.5,286.5C 1155.67,270.903 1133.67,266.903 1109.5,274.5C 1077.72,244.025 1040.72,235.358 998.5,248.5C 969.696,231.699 939.029,227.033 906.5,234.5C 899.748,231.625 893.081,228.458 886.5,225C 833.053,206.291 785.387,215.624 743.5,253C 733.864,253.109 724.364,254.275 715,256.5C 714.167,256.333 713.333,256.167 712.5,256C 702.831,245.667 691.497,237.667 678.5,232C 643.72,218.803 611.053,222.636 580.5,243.5C 573.331,238.915 565.664,235.415 557.5,233C 548.243,208.401 532.91,188.401 511.5,173C 466.063,144.874 420.396,144.541 374.5,172C 373.5,172.667 372.5,172.667 371.5,172C 366.092,151.017 356.592,132.184 343,115.5C 304.506,75.4981 258.339,62.8315 204.5,77.5C 197.361,73.4292 190.028,69.5958 182.5,66C 156.76,56.6842 131.426,57.5175 106.5,68.5C 102.461,62.2805 97.7947,56.4472 92.5,51C 70.8119,34.2305 47.1453,30.7305 21.5,40.5C 20.5272,34.1356 19.3605,27.8022 18,21.5C 15.4787,13.4566 11.6454,6.12324 6.5,-0.5 Z"/></g>
<g><path style="opacity:1" fill="#62d7f3" d="M -0.5,39.5 C 1.23383,41.0904 2.4005,43.0904 3,45.5C 6.64461,56.9163 8.47794,68.583 8.5,80.5C 39.5236,77.6943 61.6902,90.3609 75,118.5C 75.5613,119.022 76.228,119.355 77,119.5C 114.006,102.758 148.006,107.424 179,133.5C 186.45,131.429 193.95,129.596 201.5,128C 266.034,124.907 310.367,153.074 334.5,212.5C 359.053,218.764 377.719,232.764 390.5,254.5C 427.939,247.424 458.939,258.424 483.5,287.5C 496.523,283.568 509.856,281.735 523.5,282C 535.429,272.866 548.429,265.533 562.5,260C 634.082,239.416 692.082,258.749 736.5,318C 741.894,319.465 747.228,321.131 752.5,323C 779.171,334.503 797.838,353.669 808.5,380.5C 821.995,379.913 834.161,383.58 845,391.5C 861.367,373.467 881.867,363.633 906.5,362C 937.603,327.742 976.269,312.075 1022.5,315C 1071.53,322.082 1107.03,347.582 1129,391.5C 1131.42,392.961 1133.92,394.294 1136.5,395.5C 1139.23,392.384 1141.73,389.051 1144,385.5C 1173.75,354.216 1208.09,347.882 1247,366.5C 1253.37,360.731 1260.2,355.565 1267.5,351C 1303.4,334.316 1335.73,339.483 1364.5,366.5C 1366.48,365.018 1368.32,363.351 1370,361.5C 1373.82,321.671 1391.32,289.504 1422.5,265C 1474.89,229.422 1527.89,228.589 1581.5,262.5C 1596.17,258.532 1610.83,258.532 1625.5,262.5C 1623.38,265.789 1621.05,268.956 1618.5,272C 1581.64,279.931 1553.3,299.931 1533.5,332C 1510.6,334.7 1490.44,343.534 1473,358.5C 1425.81,347.675 1386.14,360.342 1354,396.5C 1350.11,401.393 1346.61,406.56 1343.5,412C 1310.24,414.124 1284.9,429.291 1267.5,457.5C 1250.45,451.784 1233.62,452.45 1217,459.5C 1178,427.097 1136,422.764 1091,446.5C 1085.98,450.187 1080.98,453.854 1076,457.5C 1066.4,454.428 1056.57,452.595 1046.5,452C 1008.27,414.438 962.934,401.772 910.5,414C 876.928,423.523 850.428,442.689 831,471.5C 829.559,472.26 828.059,472.926 826.5,473.5C 798.316,441.827 763.316,429.994 721.5,438C 692.705,413.551 659.705,404.884 622.5,412C 600.25,393.636 574.583,384.47 545.5,384.5C 534.764,385.772 524.098,387.272 513.5,389C 494.026,373.396 471.692,365.73 446.5,366C 418.733,330.124 382.066,313.791 336.5,317C 317.157,319.892 299.324,326.725 283,337.5C 276.551,292.069 253.717,257.569 214.5,234C 191.93,222.023 167.93,216.69 142.5,218C 125.324,198.401 103.99,185.401 78.5,179C 61.522,144.856 35.1886,121.023 -0.5,107.5C -0.5,84.8333 -0.5,62.1667 -0.5,39.5 Z"/></g>
<g><path style="opacity:1" fill="#62d7f4" d="M 1919.5,51.5 C 1919.5,78.8333 1919.5,106.167 1919.5,133.5C 1904.55,136.979 1890.88,143.146 1878.5,152C 1831.64,142.969 1788.97,152.302 1750.5,180C 1741.5,187.667 1733.17,196 1725.5,205C 1721.22,206.158 1716.89,206.992 1712.5,207.5C 1727.57,177.785 1751.57,159.951 1784.5,154C 1806.85,105.977 1844.52,79.9774 1897.5,76C 1901.67,70.5 1905.83,65 1910,59.5C 1912.77,56.2232 1915.93,53.5566 1919.5,51.5 Z"/></g>
<g><path style="opacity:1" fill="#7ddef6" d="M -0.5,107.5 C 35.1886,121.023 61.522,144.856 78.5,179C 103.99,185.401 125.324,198.401 142.5,218C 167.93,216.69 191.93,222.023 214.5,234C 253.717,257.569 276.551,292.069 283,337.5C 299.324,326.725 317.157,319.892 336.5,317C 382.066,313.791 418.733,330.124 446.5,366C 471.692,365.73 494.026,373.396 513.5,389C 524.098,387.272 534.764,385.772 545.5,384.5C 574.583,384.47 600.25,393.636 622.5,412C 659.705,404.884 692.705,413.551 721.5,438C 763.316,429.994 798.316,441.827 826.5,473.5C 828.059,472.926 829.559,472.26 831,471.5C 850.428,442.689 876.928,423.523 910.5,414C 962.934,401.772 1008.27,414.438 1046.5,452C 1056.57,452.595 1066.4,454.428 1076,457.5C 1080.98,453.854 1085.98,450.187 1091,446.5C 1136,422.764 1178,427.097 1217,459.5C 1233.62,452.45 1250.45,451.784 1267.5,457.5C 1284.9,429.291 1310.24,414.124 1343.5,412C 1346.61,406.56 1350.11,401.393 1354,396.5C 1386.14,360.342 1425.81,347.675 1473,358.5C 1490.44,343.534 1510.6,334.7 1533.5,332C 1553.3,299.931 1581.64,279.931 1618.5,272C 1621.05,268.956 1623.38,265.789 1625.5,262.5C 1647.92,233.79 1676.92,215.457 1712.5,207.5C 1716.89,206.992 1721.22,206.158 1725.5,205C 1733.17,196 1741.5,187.667 1750.5,180C 1788.97,152.302 1831.64,142.969 1878.5,152C 1890.88,143.146 1904.55,136.979 1919.5,133.5C 1919.5,161.833 1919.5,190.167 1919.5,218.5C 1872.52,220.327 1837.19,241.494 1813.5,282C 1762.8,287.356 1728.3,313.856 1710,361.5C 1708.51,366.779 1707.35,372.112 1706.5,377.5C 1696.8,378.845 1687.8,382.179 1679.5,387.5C 1629.33,363.317 1582.33,368.15 1538.5,402C 1515.74,421.782 1501.91,446.616 1497,476.5C 1493.07,479.217 1488.9,481.551 1484.5,483.5C 1480.98,486.096 1477.65,488.929 1474.5,492C 1473.17,492.667 1471.83,492.667 1470.5,492C 1431.55,469.291 1394.22,471.624 1358.5,499C 1353.13,504.032 1348.13,509.365 1343.5,515C 1303.93,507.576 1271.93,519.743 1247.5,551.5C 1241.4,548.892 1235.07,547.059 1228.5,546C 1219.08,545.376 1209.74,545.71 1200.5,547C 1168.39,519.055 1131.39,509.722 1089.5,519C 1069.65,524.374 1052.32,534.041 1037.5,548C 1026.86,547.822 1016.19,547.488 1005.5,547C 961.266,512.918 913.433,506.751 862,528.5C 811.39,512.654 767.39,523.32 730,560.5C 696.187,506.692 648.02,486.525 585.5,500C 570.422,505.456 556.255,512.622 543,521.5C 522.413,516.136 502.579,517.97 483.5,527C 478.366,529.969 473.366,533.136 468.5,536.5C 453.511,518.491 434.177,510.157 410.5,511.5C 390.394,459.933 352.727,437.933 297.5,445.5C 272.779,422.481 243.446,409.814 209.5,407.5C 204.684,406.674 199.684,406.174 194.5,406C 177.309,378.396 152.309,364.229 119.5,363.5C 104.948,323.536 76.6142,300.036 34.5,293C 22.8208,292.398 11.1542,292.565 -0.5,293.5C -0.5,231.5 -0.5,169.5 -0.5,107.5 Z"/></g>
<g><path style="opacity:1" fill="#98e5f8" d="M 1919.5,218.5 C 1919.5,283.5 1919.5,348.5 1919.5,413.5C 1891.9,425.429 1870.57,444.429 1855.5,470.5C 1809.69,447.351 1769.19,454.351 1734,491.5C 1730.4,497.048 1726.57,502.381 1722.5,507.5C 1696.59,503.094 1672.92,508.427 1651.5,523.5C 1595.67,504.188 1548.17,516.521 1509,560.5C 1498.42,574.702 1490.59,590.369 1485.5,607.5C 1472.07,612.546 1460.74,620.546 1451.5,631.5C 1443.07,632.691 1434.74,634.358 1426.5,636.5C 1403.12,628.443 1381.62,632.11 1362,647.5C 1338.99,629.956 1313.15,623.79 1284.5,629C 1275.65,631.673 1266.98,634.84 1258.5,638.5C 1205.82,614.057 1159.15,622.39 1118.5,663.5C 1106.89,660.628 1095.39,660.961 1084,664.5C 1043.08,629.987 998.078,623.654 949,645.5C 917.679,631.874 886.679,632.208 856,646.5C 843.327,638.497 829.494,633.664 814.5,632C 806.167,631.667 797.833,631.333 789.5,631C 753.766,598.567 712.433,588.4 665.5,600.5C 630.909,579.166 594.742,575.833 557,590.5C 533.223,575.178 507.39,570.178 479.5,575.5C 474.102,571.61 469.102,567.11 464.5,562C 442.977,544.494 418.31,536.827 390.5,539C 380.073,541.191 369.74,543.525 359.5,546C 353.98,539.815 347.813,534.315 341,529.5C 335.718,496.599 321.218,468.599 297.5,445.5C 352.727,437.933 390.394,459.933 410.5,511.5C 434.177,510.157 453.511,518.491 468.5,536.5C 473.366,533.136 478.366,529.969 483.5,527C 502.579,517.97 522.413,516.136 543,521.5C 556.255,512.622 570.422,505.456 585.5,500C 648.02,486.525 696.187,506.692 730,560.5C 767.39,523.32 811.39,512.654 862,528.5C 913.433,506.751 961.266,512.918 1005.5,547C 1016.19,547.488 1026.86,547.822 1037.5,548C 1052.32,534.041 1069.65,524.374 1089.5,519C 1131.39,509.722 1168.39,519.055 1200.5,547C 1209.74,545.71 1219.08,545.376 1228.5,546C 1235.07,547.059 1241.4,548.892 1247.5,551.5C 1271.93,519.743 1303.93,507.576 1343.5,515C 1348.13,509.365 1353.13,504.032 1358.5,499C 1394.22,471.624 1431.55,469.291 1470.5,492C 1471.83,492.667 1473.17,492.667 1474.5,492C 1477.65,488.929 1480.98,486.096 1484.5,483.5C 1488.9,481.551 1493.07,479.217 1497,476.5C 1501.91,446.616 1515.74,421.782 1538.5,402C 1582.33,368.15 1629.33,363.317 1679.5,387.5C 1687.8,382.179 1696.8,378.845 1706.5,377.5C 1707.35,372.112 1708.51,366.779 1710,361.5C 1728.3,313.856 1762.8,287.356 1813.5,282C 1837.19,241.494 1872.52,220.327 1919.5,218.5 Z"/></g>
<g><path style="opacity:1" fill="#98e5f8" d="M 209.5,407.5 C 188.462,405.934 168.128,408.934 148.5,416.5C 130.601,405.859 111.268,401.526 90.5,403.5C 74.0416,362.746 43.7082,341.413 -0.5,339.5C -0.5,324.167 -0.5,308.833 -0.5,293.5C 11.1542,292.565 22.8208,292.398 34.5,293C 76.6142,300.036 104.948,323.536 119.5,363.5C 152.309,364.229 177.309,378.396 194.5,406C 199.684,406.174 204.684,406.674 209.5,407.5 Z"/></g>
<g><path style="opacity:1" fill="#b2edfb" d="M -0.5,339.5 C 43.7082,341.413 74.0416,362.746 90.5,403.5C 111.268,401.526 130.601,405.859 148.5,416.5C 168.128,408.934 188.462,405.934 209.5,407.5C 243.446,409.814 272.779,422.481 297.5,445.5C 321.218,468.599 335.718,496.599 341,529.5C 347.813,534.315 353.98,539.815 359.5,546C 369.74,543.525 380.073,541.191 390.5,539C 418.31,536.827 442.977,544.494 464.5,562C 469.102,567.11 474.102,571.61 479.5,575.5C 507.39,570.178 533.223,575.178 557,590.5C 594.742,575.833 630.909,579.166 665.5,600.5C 712.433,588.4 753.766,598.567 789.5,631C 797.833,631.333 806.167,631.667 814.5,632C 829.494,633.664 843.327,638.497 856,646.5C 886.679,632.208 917.679,631.874 949,645.5C 998.078,623.654 1043.08,629.987 1084,664.5C 1095.39,660.961 1106.89,660.628 1118.5,663.5C 1159.15,622.39 1205.82,614.057 1258.5,638.5C 1266.98,634.84 1275.65,631.673 1284.5,629C 1313.15,623.79 1338.99,629.956 1362,647.5C 1381.62,632.11 1403.12,628.443 1426.5,636.5C 1410.17,642 1395.17,650.167 1381.5,661C 1338.63,658.845 1301.63,672.512 1270.5,702C 1230.82,702.589 1198.32,718.089 1173,748.5C 1168.92,754.331 1165.08,760.331 1161.5,766.5C 1158.89,767.652 1156.23,767.818 1153.5,767C 1120.44,733.899 1081.1,722.899 1035.5,734C 1016.72,739.719 1000.05,749.052 985.5,762C 955.331,757.704 928.665,765.204 905.5,784.5C 874.461,717.363 821.795,685.53 747.5,689C 719.846,692.996 694.846,703.329 672.5,720C 668.833,720.667 665.167,720.667 661.5,720C 626.42,680.918 583.087,666.752 531.5,677.5C 523.839,673.336 516.172,669.169 508.5,665C 499.061,661.39 489.394,658.557 479.5,656.5C 446.427,612.305 402.094,591.805 346.5,595C 335.599,596.811 324.933,599.311 314.5,602.5C 305.714,598.689 296.88,595.023 288,591.5C 261.461,539.218 218.794,511.885 160,509.5C 148.332,509.381 136.832,510.714 125.5,513.5C 117.251,509.039 108.918,504.539 100.5,500C 79.7473,492.027 58.414,489.694 36.5,493C 28.0273,480.527 17.5273,470.027 5,461.5C 3.9021,452.545 2.06876,443.878 -0.5,435.5C -0.5,403.5 -0.5,371.5 -0.5,339.5 Z"/></g>
<g><path style="opacity:1" fill="#cdf4fd" d="M 1919.5,413.5 C 1919.5,449.833 1919.5,486.167 1919.5,522.5C 1867.86,526.983 1832.19,553.149 1812.5,601C 1803.29,602.431 1794.29,604.764 1785.5,608C 1778.46,611.518 1771.46,615.018 1764.5,618.5C 1698.63,601.51 1645.13,619.843 1604,673.5C 1601.83,677.167 1599.67,680.833 1597.5,684.5C 1568.15,691.334 1544.15,706.501 1525.5,730C 1480.34,729.127 1445.84,747.627 1422,785.5C 1418.93,790.964 1416.43,796.631 1414.5,802.5C 1410.87,801.392 1407.87,799.226 1405.5,796C 1356.54,759.367 1304.37,754.2 1249,780.5C 1218.73,798.022 1197.07,823.022 1184,855.5C 1178.77,858.78 1173.43,861.78 1168,864.5C 1157.31,857.91 1145.81,853.077 1133.5,850C 1126.87,849.014 1120.21,848.514 1113.5,848.5C 1102.04,848.914 1090.7,850.081 1079.5,852C 1043.91,829.236 1006.25,825.236 966.5,840C 960.459,842.455 954.625,845.289 949,848.5C 943.879,852.797 938.379,856.464 932.5,859.5C 926.565,858.011 920.565,856.844 914.5,856C 871.244,811.852 819.91,799.019 760.5,817.5C 708.293,798.717 660.793,806.717 618,841.5C 585.534,791.024 539.367,769.858 479.5,778C 461.138,782.43 444.304,790.263 429,801.5C 406.334,742.667 363.5,712 300.5,709.5C 289.659,709.609 278.993,711.109 268.5,714C 256.11,718.034 244.11,722.867 232.5,728.5C 217.216,722.964 201.549,721.464 185.5,724C 183.341,724.912 181.175,725.745 179,726.5C 166.948,695.949 144.781,677.616 112.5,671.5C 98.6266,622.464 66.6266,592.964 16.5,583C 11.6782,573.832 6.01149,565.332 -0.5,557.5C -0.5,516.833 -0.5,476.167 -0.5,435.5C 2.06876,443.878 3.9021,452.545 5,461.5C 17.5273,470.027 28.0273,480.527 36.5,493C 58.414,489.694 79.7473,492.027 100.5,500C 108.918,504.539 117.251,509.039 125.5,513.5C 136.832,510.714 148.332,509.381 160,509.5C 218.794,511.885 261.461,539.218 288,591.5C 296.88,595.023 305.714,598.689 314.5,602.5C 324.933,599.311 335.599,596.811 346.5,595C 402.094,591.805 446.427,612.305 479.5,656.5C 489.394,658.557 499.061,661.39 508.5,665C 516.172,669.169 523.839,673.336 531.5,677.5C 583.087,666.752 626.42,680.918 661.5,720C 665.167,720.667 668.833,720.667 672.5,720C 694.846,703.329 719.846,692.996 747.5,689C 821.795,685.53 874.461,717.363 905.5,784.5C 928.665,765.204 955.331,757.704 985.5,762C 1000.05,749.052 1016.72,739.719 1035.5,734C 1081.1,722.899 1120.44,733.899 1153.5,767C 1156.23,767.818 1158.89,767.652 1161.5,766.5C 1165.08,760.331 1168.92,754.331 1173,748.5C 1198.32,718.089 1230.82,702.589 1270.5,702C 1301.63,672.512 1338.63,658.845 1381.5,661C 1395.17,650.167 1410.17,642 1426.5,636.5C 1434.74,634.358 1443.07,632.691 1451.5,631.5C 1457.5,630.777 1463.5,629.944 1469.5,629C 1513.19,590.083 1563.19,579.249 1619.5,596.5C 1632.47,590.136 1646.14,585.97 1660.5,584C 1666.83,583.333 1673.17,583.333 1679.5,584C 1688.61,585.063 1697.61,586.396 1706.5,588C 1720.58,573.294 1737.58,563.794 1757.5,559.5C 1774.5,515.179 1806.16,487.513 1852.5,476.5C 1853.51,474.473 1854.51,472.473 1855.5,470.5C 1870.57,444.429 1891.9,425.429 1919.5,413.5 Z"/></g>
<g><path style="opacity:1" fill="#b2edfb" d="M 1855.5,470.5 C 1854.51,472.473 1853.51,474.473 1852.5,476.5C 1806.16,487.513 1774.5,515.179 1757.5,559.5C 1737.58,563.794 1720.58,573.294 1706.5,588C 1697.61,586.396 1688.61,585.063 1679.5,584C 1673.17,583.333 1666.83,583.333 1660.5,584C 1646.14,585.97 1632.47,590.136 1619.5,596.5C 1563.19,579.249 1513.19,590.083 1469.5,629C 1463.5,629.944 1457.5,630.777 1451.5,631.5C 1460.74,620.546 1472.07,612.546 1485.5,607.5C 1490.59,590.369 1498.42,574.702 1509,560.5C 1548.17,516.521 1595.67,504.188 1651.5,523.5C 1672.92,508.427 1696.59,503.094 1722.5,507.5C 1726.57,502.381 1730.4,497.048 1734,491.5C 1769.19,454.351 1809.69,447.351 1855.5,470.5 Z"/></g>
<g><path style="opacity:1" fill="#e8fafe" d="M 1919.5,522.5 C 1919.5,580.167 1919.5,637.833 1919.5,695.5C 1871.04,692.506 1834.54,711.839 1810,753.5C 1802.87,768.358 1799.04,784.025 1798.5,800.5C 1778.37,803.283 1763.37,813.617 1753.5,831.5C 1729.86,815.623 1704.36,811.623 1677,819.5C 1628.21,792.488 1579.05,791.654 1529.5,817C 1497.14,835.521 1474.81,862.354 1462.5,897.5C 1183.17,897.5 903.833,897.5 624.5,897.5C 610.492,891.97 595.825,889.303 580.5,889.5C 570.103,890.343 559.77,891.843 549.5,894C 547.142,895.276 544.808,896.442 542.5,897.5C 524.5,897.5 506.5,897.5 488.5,897.5C 471.785,860.299 443.452,837.133 403.5,828C 391.909,826.17 380.242,825.17 368.5,825C 334.763,788.859 293.93,776.692 246,788.5C 221.282,764.372 191.782,754.872 157.5,760C 146.865,740.532 131.532,726.032 111.5,716.5C 100.263,668.769 72.5963,634.269 28.5,613C 19.143,609.078 9.47637,606.244 -0.5,604.5C -0.5,588.833 -0.5,573.167 -0.5,557.5C 6.01149,565.332 11.6782,573.832 16.5,583C 66.6266,592.964 98.6266,622.464 112.5,671.5C 144.781,677.616 166.948,695.949 179,726.5C 181.175,725.745 183.341,724.912 185.5,724C 201.549,721.464 217.216,722.964 232.5,728.5C 244.11,722.867 256.11,718.034 268.5,714C 278.993,711.109 289.659,709.609 300.5,709.5C 363.5,712 406.334,742.667 429,801.5C 444.304,790.263 461.138,782.43 479.5,778C 539.367,769.858 585.534,791.024 618,841.5C 660.793,806.717 708.293,798.717 760.5,817.5C 819.91,799.019 871.244,811.852 914.5,856C 920.565,856.844 926.565,858.011 932.5,859.5C 938.379,856.464 943.879,852.797 949,848.5C 954.625,845.289 960.459,842.455 966.5,840C 1006.25,825.236 1043.91,829.236 1079.5,852C 1090.7,850.081 1102.04,848.914 1113.5,848.5C 1120.21,848.514 1126.87,849.014 1133.5,850C 1145.81,853.077 1157.31,857.91 1168,864.5C 1173.43,861.78 1178.77,858.78 1184,855.5C 1197.07,823.022 1218.73,798.022 1249,780.5C 1304.37,754.2 1356.54,759.367 1405.5,796C 1407.87,799.226 1410.87,801.392 1414.5,802.5C 1416.43,796.631 1418.93,790.964 1422,785.5C 1445.84,747.627 1480.34,729.127 1525.5,730C 1544.15,706.501 1568.15,691.334 1597.5,684.5C 1599.67,680.833 1601.83,677.167 1604,673.5C 1645.13,619.843 1698.63,601.51 1764.5,618.5C 1771.46,615.018 1778.46,611.518 1785.5,608C 1794.29,604.764 1803.29,602.431 1812.5,601C 1832.19,553.149 1867.86,526.983 1919.5,522.5 Z"/></g>
<g><path style="opacity:1" fill="#fefefe" d="M -0.5,604.5 C 9.47637,606.244 19.143,609.078 28.5,613C 72.5963,634.269 100.263,668.769 111.5,716.5C 131.532,726.032 146.865,740.532 157.5,760C 191.782,754.872 221.282,764.372 246,788.5C 293.93,776.692 334.763,788.859 368.5,825C 380.242,825.17 391.909,826.17 403.5,828C 443.452,837.133 471.785,860.299 488.5,897.5C 325.5,897.5 162.5,897.5 -0.5,897.5C -0.5,799.833 -0.5,702.167 -0.5,604.5 Z"/></g>
<g><path style="opacity:1" fill="#fefeff" d="M 1919.5,695.5 C 1919.5,762.833 1919.5,830.167 1919.5,897.5C 1767.17,897.5 1614.83,897.5 1462.5,897.5C 1474.81,862.354 1497.14,835.521 1529.5,817C 1579.05,791.654 1628.21,792.488 1677,819.5C 1704.36,811.623 1729.86,815.623 1753.5,831.5C 1763.37,813.617 1778.37,803.283 1798.5,800.5C 1799.04,784.025 1802.87,768.358 1810,753.5C 1834.54,711.839 1871.04,692.506 1919.5,695.5 Z"/></g>
<g><path style="opacity:1" fill="#fefeff" d="M 624.5,897.5 C 597.167,897.5 569.833,897.5 542.5,897.5C 544.808,896.442 547.142,895.276 549.5,894C 559.77,891.843 570.103,890.343 580.5,889.5C 595.825,889.303 610.492,891.97 624.5,897.5 Z"/></g>
</svg>
