<?xml version="1.0" encoding="UTF-8"?>
<!DOCTYPE svg PUBLIC "-//W3C//DTD SVG 1.1//EN" "http://www.w3.org/Graphics/SVG/1.1/DTD/svg11.dtd">
<svg xmlns="http://www.w3.org/2000/svg" version="1.1" width="64px" height="64px" style="shape-rendering:geometricPrecision; text-rendering:geometricPrecision; image-rendering:optimizeQuality; fill-rule:evenodd; clip-rule:evenodd" xmlns:xlink="http://www.w3.org/1999/xlink">
<g><path style="opacity:1" fill="#985da7" d="M 61.5,13.5 C 60.1667,13.5 58.8333,13.5 57.5,13.5C 49.5,13.5 41.5,13.5 33.5,13.5C 22.8333,13.5 12.1667,13.5 1.5,13.5C 1.26057,11.5328 1.59391,9.69946 2.5,8C 21.8333,7.33333 41.1667,7.33333 60.5,8C 61.4061,9.69946 61.7394,11.5328 61.5,13.5 Z"/></g>
<g><path style="opacity:1" fill="#93af56" d="M 5.5,9.5 C 7.33702,9.63945 7.67036,10.3061 6.5,11.5C 5.70245,11.0431 5.36912,10.3764 5.5,9.5 Z"/></g>
<g><path style="opacity:1" fill="#93af56" d="M 9.5,9.5 C 11.337,9.63945 11.6704,10.3061 10.5,11.5C 9.70245,11.0431 9.36912,10.3764 9.5,9.5 Z"/></g>
<g><path style="opacity:1" fill="#93af56" d="M 13.5,9.5 C 15.337,9.63945 15.6704,10.3061 14.5,11.5C 13.7025,11.0431 13.3691,10.3764 13.5,9.5 Z"/></g>
<g><path style="opacity:1" fill="#463d4b" d="M 1.5,13.5 C 12.1667,13.5 22.8333,13.5 33.5,13.5C 33.5,27.5 33.5,41.5 33.5,55.5C 22.9179,55.8199 12.4179,55.4866 2,54.5C 1.5001,40.8374 1.33343,27.1707 1.5,13.5 Z"/></g>
<g><path style="opacity:1" fill="#53576b" d="M 33.5,13.5 C 41.5,13.5 49.5,13.5 57.5,13.5C 57.6666,26.8375 57.4999,40.1708 57,53.5C 56.2828,54.0442 55.7828,54.7109 55.5,55.5C 48.1667,55.5 40.8333,55.5 33.5,55.5C 33.5,41.5 33.5,27.5 33.5,13.5 Z"/></g>
<g><path style="opacity:0.995" fill="#463c4b" d="M 57.5,13.5 C 58.8333,13.5 60.1667,13.5 61.5,13.5C 61.6666,27.1707 61.4999,40.8374 61,54.5C 59.3005,55.4061 57.4672,55.7394 55.5,55.5C 55.7828,54.7109 56.2828,54.0442 57,53.5C 57.4999,40.1708 57.6666,26.8375 57.5,13.5 Z"/></g>
<g><path style="opacity:1" fill="#87c03e" d="M 22.5,19.5 C 23.8069,20.8016 23.8069,22.135 22.5,23.5C 23.7515,24.6311 24.7515,25.9644 25.5,27.5C 24.7515,29.0356 23.7515,30.3689 22.5,31.5C 23.8069,32.865 23.8069,34.1984 22.5,35.5C 21.1213,36.6089 19.4547,37.2755 17.5,37.5C 14.4788,36.7243 11.4788,35.8909 8.5,35C 7.74131,32.4366 6.74131,29.9366 5.5,27.5C 6.74131,25.0634 7.74131,22.5634 8.5,20C 11.4788,19.1091 14.4788,18.2757 17.5,17.5C 19.4547,17.7245 21.1213,18.3911 22.5,19.5 Z"/></g>
<g><path style="opacity:1" fill="#5fa446" d="M 22.5,19.5 C 26.4089,18.7366 27.7422,20.0699 26.5,23.5C 27.7515,24.6311 28.7515,25.9644 29.5,27.5C 28.7515,29.0356 27.7515,30.3689 26.5,31.5C 27.7422,34.9301 26.4089,36.2634 22.5,35.5C 23.8069,34.1984 23.8069,32.865 22.5,31.5C 23.7515,30.3689 24.7515,29.0356 25.5,27.5C 24.7515,25.9644 23.7515,24.6311 22.5,23.5C 23.8069,22.135 23.8069,20.8016 22.5,19.5 Z"/></g>
<g><path style="opacity:1" fill="#8dc23f" d="M 35.5,21.5 C 38.2469,21.1866 40.9135,21.52 43.5,22.5C 42.1667,22.8333 40.8333,23.1667 39.5,23.5C 37.6672,23.4146 36.3339,22.7479 35.5,21.5 Z"/></g>
<g><path style="opacity:1" fill="#8dc23f" d="M 37.5,25.5 C 40.2469,25.1866 42.9135,25.52 45.5,26.5C 44.1667,26.8333 42.8333,27.1667 41.5,27.5C 39.6672,27.4146 38.3339,26.7479 37.5,25.5 Z"/></g>
<g><path style="opacity:1" fill="#d0dee9" d="M 47.5,25.5 C 50.2469,25.1866 52.9135,25.52 55.5,26.5C 54.1667,26.8333 52.8333,27.1667 51.5,27.5C 49.6672,27.4146 48.3339,26.7479 47.5,25.5 Z"/></g>
<g><path style="opacity:1" fill="#4a4849" d="M 16.5,26.5 C 18.337,26.6395 18.6704,27.3061 17.5,28.5C 16.7025,28.0431 16.3691,27.3764 16.5,26.5 Z"/></g>
<g><path style="opacity:1" fill="#8dc23f" d="M 37.5,29.5 C 40.2469,29.1866 42.9135,29.52 45.5,30.5C 44.1667,30.8333 42.8333,31.1667 41.5,31.5C 39.6672,31.4146 38.3339,30.7479 37.5,29.5 Z"/></g>
<g><path style="opacity:1" fill="#d0dee9" d="M 47.5,29.5 C 50.2469,29.1866 52.9135,29.52 55.5,30.5C 54.1667,30.8333 52.8333,31.1667 51.5,31.5C 49.6672,31.4146 48.3339,30.7479 47.5,29.5 Z"/></g>
<g><path style="opacity:1" fill="#8dc23f" d="M 37.5,33.5 C 40.2469,33.1866 42.9135,33.52 45.5,34.5C 44.1667,34.8333 42.8333,35.1667 41.5,35.5C 39.6672,35.4146 38.3339,34.7479 37.5,33.5 Z"/></g>
<g><path style="opacity:1" fill="#d0dee9" d="M 47.5,33.5 C 50.2469,33.1866 52.9135,33.52 55.5,34.5C 54.1667,34.8333 52.8333,35.1667 51.5,35.5C 49.6672,35.4146 48.3339,34.7479 47.5,33.5 Z"/></g>
<g><path style="opacity:1" fill="#9ab3cb" d="M 11.5,40.5 C 12.3764,40.3691 13.0431,40.7025 13.5,41.5C 12.5,42.8333 11.5,44.1667 10.5,45.5C 11.5,46.8333 12.5,48.1667 13.5,49.5C 10.9208,49.6764 8.92077,48.3431 7.5,45.5C 8.85689,43.8144 10.1902,42.1477 11.5,40.5 Z"/></g>
<g><path style="opacity:1" fill="#9db7cf" d="M 18.5,40.5 C 19.3764,40.3691 20.0431,40.7025 20.5,41.5C 14.0272,53.3612 13.3605,53.0279 18.5,40.5 Z"/></g>
<g><path style="opacity:1" fill="#99b3cb" d="M 21.5,40.5 C 28.8661,43.2119 29.1994,46.5452 22.5,50.5C 22.1667,50.1667 21.8333,49.8333 21.5,49.5C 22.5,48.1667 23.5,46.8333 24.5,45.5C 23.0476,44.0603 22.0476,42.3936 21.5,40.5 Z"/></g>
</svg>
