<?xml version="1.0" encoding="UTF-8"?>
<!DOCTYPE svg PUBLIC "-//W3C//DTD SVG 1.1//EN" "http://www.w3.org/Graphics/SVG/1.1/DTD/svg11.dtd">
<svg xmlns="http://www.w3.org/2000/svg" version="1.1" width="64px" height="64px" style="shape-rendering:geometricPrecision; text-rendering:geometricPrecision; image-rendering:optimizeQuality; fill-rule:evenodd; clip-rule:evenodd" xmlns:xlink="http://www.w3.org/1999/xlink">
<g><path style="opacity:0.722" fill="#073863" d="M 4.5,2.5 C 22.5031,2.33339 40.5031,2.50006 58.5,3C 59,3.5 59.5,4 60,4.5C 61.6334,19.4069 61.9668,34.4069 61,49.5C 60.6258,50.4162 60.1258,51.2496 59.5,52C 55.5,52.3333 51.5,52.6667 47.5,53C 45.1947,56.8859 42.3613,57.3859 39,54.5C 36.0899,55.4503 34.9232,57.4503 35.5,60.5C 32.8333,60.5 30.1667,60.5 27.5,60.5C 27.0925,55.0471 24.5925,53.7138 20,56.5C 18.2252,55.7297 16.7252,54.563 15.5,53C 11.5,52.6667 7.5,52.3333 3.5,52C 2.87424,51.2496 2.37424,50.4162 2,49.5C 1.33333,35.1667 1.33333,20.8333 2,6.5C 2.66218,5.01608 3.49551,3.68275 4.5,2.5 Z"/></g>
<g><path style="opacity:1" fill="#00a6e3" d="M 5.5,4.5 C 22.8365,4.33339 40.1699,4.50006 57.5,5C 58,5.5 58.5,6 59,6.5C 59.498,9.48162 59.6646,12.4816 59.5,15.5C 40.8333,15.5 22.1667,15.5 3.5,15.5C 3.00969,11.5128 3.67636,7.84616 5.5,4.5 Z"/></g>
<g><path style="opacity:0.988" fill="#095077" d="M 7.5,6.5 C 12.4928,6.99704 13.4928,9.16371 10.5,13C 5.38231,12.8242 4.38231,10.6576 7.5,6.5 Z"/></g>
<g><path style="opacity:1" fill="#00eace" d="M 7.5,8.5 C 8.5,8.5 9.5,8.5 10.5,8.5C 10.5,9.5 10.5,10.5 10.5,11.5C 9.5,11.5 8.5,11.5 7.5,11.5C 7.5,10.5 7.5,9.5 7.5,8.5 Z"/></g>
<g><path style="opacity:0.996" fill="#09547c" d="M 24.5,6.5 C 29.4928,6.99704 30.4928,9.16371 27.5,13C 22.3823,12.8242 21.3823,10.6576 24.5,6.5 Z"/></g>
<g><path style="opacity:1" fill="#00eace" d="M 24.5,8.5 C 25.5,8.5 26.5,8.5 27.5,8.5C 27.5,9.5 27.5,10.5 27.5,11.5C 26.5,11.5 25.5,11.5 24.5,11.5C 24.5,10.5 24.5,9.5 24.5,8.5 Z"/></g>
<g><path style="opacity:0.994" fill="#084874" d="M 15.5,6.5 C 20.3276,6.38524 21.6609,8.55191 19.5,13C 14.5705,13.427 13.2372,11.2604 15.5,6.5 Z"/></g>
<g><path style="opacity:1" fill="#06cdbd" d="M 15.5,8.5 C 16.8333,8.5 18.1667,8.5 19.5,8.5C 19.7778,10.3464 19.1112,11.6798 17.5,12.5C 15.8888,11.6798 15.2222,10.3464 15.5,8.5 Z"/></g>
<g><path style="opacity:1" fill="#01eace" d="M 58.5,49.5 C 58.3893,50.1174 58.056,50.6174 57.5,51C 53.6425,51.8099 49.9758,51.6433 46.5,50.5C 45.5615,48.2436 45.5615,45.9103 46.5,43.5C 47.8333,43.5 49.1667,43.5 50.5,43.5C 50.5,41.1667 50.5,38.8333 50.5,36.5C 45.3216,35.8093 44.3216,33.3093 47.5,29C 45.9825,27.3149 44.3159,25.8149 42.5,24.5C 38.3914,27.5758 36.0581,26.5758 35.5,21.5C 32.8333,21.5 30.1667,21.5 27.5,21.5C 27.7733,23.451 27.1066,24.951 25.5,26C 23.3454,26.116 21.3454,25.7827 19.5,25C 18.1667,26.3333 16.8333,27.6667 15.5,29C 18.6784,33.3093 17.6784,35.8093 12.5,36.5C 12.5,39.1667 12.5,41.8333 12.5,44.5C 16.8575,44.5559 18.1908,46.5559 16.5,50.5C 13.0242,51.6433 9.35754,51.8099 5.5,51C 4.94404,50.6174 4.61071,50.1174 4.5,49.5C 4.5,38.8333 4.5,28.1667 4.5,17.5C 22.5,17.5 40.5,17.5 58.5,17.5C 58.5,28.1667 58.5,38.8333 58.5,49.5 Z"/></g>
<g><path style="opacity:1" fill="#03b6af" d="M 58.5,49.5 C 58.5,38.8333 58.5,28.1667 58.5,17.5C 40.5,17.5 22.5,17.5 4.5,17.5C 4.5,28.1667 4.5,38.8333 4.5,49.5C 3.5054,38.6794 3.17207,27.6794 3.5,16.5C 22.1667,16.5 40.8333,16.5 59.5,16.5C 59.8279,27.6794 59.4946,38.6794 58.5,49.5 Z"/></g>
<g><path style="opacity:1" fill="#00a4e1" d="M 45.5,50.5 C 44.5556,54.6455 42.5556,55.3121 39.5,52.5C 35.5867,52.759 33.5867,54.759 33.5,58.5C 32.1667,58.5 30.8333,58.5 29.5,58.5C 29.5,57.1667 29.5,55.8333 29.5,54.5C 27.4004,54.5228 25.5671,53.8561 24,52.5C 20.747,55.459 18.5804,54.7924 17.5,50.5C 19.2726,49.6857 19.7726,48.3524 19,46.5C 18.313,43.5744 16.4797,42.2411 13.5,42.5C 13.5,41.1667 13.5,39.8333 13.5,38.5C 17.241,38.4133 19.241,36.4133 19.5,32.5C 17.4106,30.4055 17.4106,28.5721 19.5,27C 21.1068,26.8849 22.6068,27.3849 24,28.5C 25.5671,27.1439 27.4004,26.4772 29.5,26.5C 29.5,25.1667 29.5,23.8333 29.5,22.5C 30.8333,22.5 32.1667,22.5 33.5,22.5C 33.5867,26.241 35.5867,28.241 39.5,28.5C 41.6981,25.7567 43.6981,25.9233 45.5,29C 43.2315,31.718 43.2315,34.5513 45.5,37.5C 46.6888,38.4287 48.0222,38.762 49.5,38.5C 49.5,39.8333 49.5,41.1667 49.5,42.5C 45.759,42.5867 43.759,44.5867 43.5,48.5C 43.8555,49.5223 44.5222,50.189 45.5,50.5 Z"/></g>
<g><path style="opacity:1" fill="#0a4f75" d="M 46.5,50.5 C 46.1667,50.5 45.8333,50.5 45.5,50.5C 44.5222,50.189 43.8555,49.5223 43.5,48.5C 43.759,44.5867 45.759,42.5867 49.5,42.5C 49.5,41.1667 49.5,39.8333 49.5,38.5C 48.0222,38.762 46.6888,38.4287 45.5,37.5C 43.2315,34.5513 43.2315,31.718 45.5,29C 43.6981,25.9233 41.6981,25.7567 39.5,28.5C 35.5867,28.241 33.5867,26.241 33.5,22.5C 32.1667,22.5 30.8333,22.5 29.5,22.5C 29.5,23.8333 29.5,25.1667 29.5,26.5C 27.4004,26.4772 25.5671,27.1439 24,28.5C 22.6068,27.3849 21.1068,26.8849 19.5,27C 17.4106,28.5721 17.4106,30.4055 19.5,32.5C 19.241,36.4133 17.241,38.4133 13.5,38.5C 13.5,39.8333 13.5,41.1667 13.5,42.5C 16.4797,42.2411 18.313,43.5744 19,46.5C 19.7726,48.3524 19.2726,49.6857 17.5,50.5C 17.1667,50.5 16.8333,50.5 16.5,50.5C 18.1908,46.5559 16.8575,44.5559 12.5,44.5C 12.5,41.8333 12.5,39.1667 12.5,36.5C 17.6784,35.8093 18.6784,33.3093 15.5,29C 16.8333,27.6667 18.1667,26.3333 19.5,25C 21.3454,25.7827 23.3454,26.116 25.5,26C 27.1066,24.951 27.7733,23.451 27.5,21.5C 30.1667,21.5 32.8333,21.5 35.5,21.5C 36.0581,26.5758 38.3914,27.5758 42.5,24.5C 44.3159,25.8149 45.9825,27.3149 47.5,29C 44.3216,33.3093 45.3216,35.8093 50.5,36.5C 50.5,38.8333 50.5,41.1667 50.5,43.5C 49.1667,43.5 47.8333,43.5 46.5,43.5C 45.5615,45.9103 45.5615,48.2436 46.5,50.5 Z"/></g>
<g><path style="opacity:0.984" fill="#164b72" d="M 28.5,28.5 C 41.2511,29.3544 45.4177,35.6878 41,47.5C 32.3659,55.0048 25.3659,53.6715 20,43.5C 19.2103,36.4097 22.0436,31.4097 28.5,28.5 Z"/></g>
<g><path style="opacity:1" fill="#ebce44" d="M 27.5,30.5 C 37.9884,29.4874 42.4884,34.154 41,44.5C 37.9446,49.6348 33.4446,51.4681 27.5,50C 21.9752,47.0812 20.1419,42.5812 22,36.5C 23.3597,33.9774 25.193,31.9774 27.5,30.5 Z"/></g>
<g><path style="opacity:1" fill="#354f5e" d="M 27.5,36.5 C 28.2389,36.369 28.9056,36.5357 29.5,37C 27.9386,37.941 26.6053,39.1076 25.5,40.5C 26.9814,41.4803 28.3147,42.647 29.5,44C 22.6972,42.9197 22.0306,40.4197 27.5,36.5 Z"/></g>
<g><path style="opacity:1" fill="#364f5e" d="M 31.5,34.5 C 32.5599,38.3724 32.3932,42.3724 31,46.5C 30.5027,42.4761 30.6693,38.4761 31.5,34.5 Z"/></g>
<g><path style="opacity:1" fill="#2e4b5f" d="M 33.5,37.5 C 36.1736,36.3974 38.1736,37.3974 39.5,40.5C 38.1659,42.9952 36.1659,44.1619 33.5,44C 38.7721,41.6658 38.7721,39.4991 33.5,37.5 Z"/></g>
</svg>
