<?xml version="1.0" encoding="UTF-8"?>
<!DOCTYPE svg PUBLIC "-//W3C//DTD SVG 1.1//EN" "http://www.w3.org/Graphics/SVG/1.1/DTD/svg11.dtd">
<svg xmlns="http://www.w3.org/2000/svg" version="1.1" width="512px" height="512px" style="shape-rendering:geometricPrecision; text-rendering:geometricPrecision; image-rendering:optimizeQuality; fill-rule:evenodd; clip-rule:evenodd" xmlns:xlink="http://www.w3.org/1999/xlink">
<g><path style="opacity:0.984" fill="#000000" d="M 228.5,-0.5 C 247.5,-0.5 266.5,-0.5 285.5,-0.5C 357.355,9.99382 415.855,43.3272 461,99.5C 488.855,137.246 505.689,179.579 511.5,226.5C 511.5,245.5 511.5,264.5 511.5,283.5C 500.961,364.105 462.128,426.772 395,471.5C 324.359,364.695 253.525,258.028 182.5,151.5C 178.235,146.703 172.902,144.703 166.5,145.5C 163.833,145.667 161.167,145.833 158.5,146C 156,147.833 153.5,149.667 151,151.5C 150.333,229.5 150.333,307.5 151,385.5C 157.795,394.207 166.295,396.374 176.5,392C 179.667,390.167 182.167,387.667 184,384.5C 184.333,327.167 184.667,269.833 185,212.5C 190.385,218.884 195.385,225.55 200,232.5C 256.658,315.827 313.325,399.161 370,482.5C 370.684,483.784 370.517,484.951 369.5,486C 342.307,498.467 313.973,506.967 284.5,511.5C 265.833,511.5 247.167,511.5 228.5,511.5C 141.663,498.776 75.496,455.109 30,380.5C 22.2904,365.403 15.6237,349.736 10,333.5C 5.95674,317.511 2.45674,301.511 -0.5,285.5C -0.5,265.833 -0.5,246.167 -0.5,226.5C 12.7979,134.737 60.4645,67.5705 142.5,25C 169.988,12.4056 198.654,3.90556 228.5,-0.5 Z M 340.5,139.5 C 347.997,138.705 354.497,140.705 360,145.5C 360.333,146.833 360.667,148.167 361,149.5C 361.667,215.833 361.667,282.167 361,348.5C 349.419,331.672 338.085,314.672 327,297.5C 326.333,248.167 326.333,198.833 327,149.5C 329.435,143.215 333.935,139.881 340.5,139.5 Z"/></g>
</svg>
