<?xml version="1.0" encoding="UTF-8"?>
<!DOCTYPE svg PUBLIC "-//W3C//DTD SVG 1.1//EN" "http://www.w3.org/Graphics/SVG/1.1/DTD/svg11.dtd">
<svg xmlns="http://www.w3.org/2000/svg" version="1.1" width="1920px" height="898px" style="shape-rendering:geometricPrecision; text-rendering:geometricPrecision; image-rendering:optimizeQuality; fill-rule:evenodd; clip-rule:evenodd" xmlns:xlink="http://www.w3.org/1999/xlink">
<g><path style="opacity:1" fill="#010101" d="M -0.5,-0.5 C 639.5,-0.5 1279.5,-0.5 1919.5,-0.5C 1919.5,11.8333 1919.5,24.1667 1919.5,36.5C 1911.63,41.8589 1904.46,48.1922 1898,55.5C 1894.69,60.4732 1891.02,65.1399 1887,69.5C 1833.69,77.3923 1796.86,106.226 1776.5,156C 1741.53,166.471 1718.2,188.971 1706.5,223.5C 1696.71,222.786 1687.21,224.119 1678,227.5C 1631.31,198.773 1583.65,197.106 1535,222.5C 1511.41,237.421 1493.41,257.421 1481,282.5C 1444.8,259.71 1405.97,253.876 1364.5,265C 1343.87,271.812 1325.54,282.478 1309.5,297C 1261.29,298.099 1224.29,318.932 1198.5,359.5C 1188.92,361.694 1179.58,364.694 1170.5,368.5C 1147.4,351.058 1121.4,343.891 1092.5,347C 1054.77,317.264 1012.77,309.264 966.5,323C 945.361,330.735 927.027,342.735 911.5,359C 909.167,359.667 906.833,359.667 904.5,359C 875.524,325.554 838.857,310.888 794.5,315C 759.772,288.434 721.105,280.1 678.5,290C 672,292.167 665.5,294.333 659,296.5C 622.154,281.092 586.654,283.592 552.5,304C 547.211,307.62 542.211,311.62 537.5,316C 533.557,316.522 529.89,315.689 526.5,313.5C 513.643,265.477 482.977,235.977 434.5,225C 422.541,223.801 410.541,223.134 398.5,223C 375.643,197.926 347.143,185.426 313,185.5C 303.443,186.632 293.943,187.799 284.5,189C 254.042,158.791 218.875,151.624 179,167.5C 170.177,151.167 157.01,140.167 139.5,134.5C 135.977,90.2621 115.31,56.7621 77.5,34C 53.0002,20.9992 27.0002,16.4992 -0.5,20.5C -0.5,13.5 -0.5,6.5 -0.5,-0.5 Z"/></g>
<g><path style="opacity:1" fill="#282828" d="M 1919.5,36.5 C 1919.5,64.5 1919.5,92.5 1919.5,120.5C 1878.76,129.442 1849.6,152.776 1832,190.5C 1830.26,195.882 1828.43,201.215 1826.5,206.5C 1788.56,215.605 1764.06,238.938 1753,276.5C 1751.79,284.119 1751.29,291.786 1751.5,299.5C 1733.37,297.564 1717.87,302.897 1705,315.5C 1701.85,319.48 1699.35,323.814 1697.5,328.5C 1685.5,330.165 1674.17,333.832 1663.5,339.5C 1629.62,331.528 1604.79,342.861 1589,373.5C 1585.53,382.851 1583.86,392.517 1584,402.5C 1576.29,393.894 1566.79,388.228 1555.5,385.5C 1518.95,342.368 1472.62,325.201 1416.5,334C 1397.46,337.855 1380.13,345.521 1364.5,357C 1323.76,353.586 1287.43,364.252 1255.5,389C 1204.63,387.183 1164.8,407.016 1136,448.5C 1133.25,453.008 1130.75,457.674 1128.5,462.5C 1117.98,465.177 1108.48,469.844 1100,476.5C 1083.87,464.566 1065.7,458.4 1045.5,458C 1011.68,423.17 970.678,409.504 922.5,417C 917.38,418.625 912.213,420.125 907,421.5C 860.993,401.704 816.493,404.537 773.5,430C 763.557,436.944 754.557,444.944 746.5,454C 743.773,454.818 741.106,454.652 738.5,453.5C 709.457,417.823 672.123,403.657 626.5,411C 611.116,414.196 597.116,420.362 584.5,429.5C 558.724,418.14 533.391,419.14 508.5,432.5C 493.724,412.277 473.724,401.777 448.5,401C 435.357,368.524 412.024,347.191 378.5,337C 345.55,277.188 294.884,251.188 226.5,259C 219.307,260.672 212.141,262.506 205,264.5C 188.835,255.625 171.502,250.958 153,250.5C 139.718,249.889 127.052,252.222 115,257.5C 89.0939,224.44 56.7606,216.106 18,232.5C 16.1146,217.399 9.94797,204.399 -0.5,193.5C -0.5,135.833 -0.5,78.1667 -0.5,20.5C 27.0002,16.4992 53.0002,20.9992 77.5,34C 115.31,56.7621 135.977,90.2621 139.5,134.5C 157.01,140.167 170.177,151.167 179,167.5C 218.875,151.624 254.042,158.791 284.5,189C 293.943,187.799 303.443,186.632 313,185.5C 347.143,185.426 375.643,197.926 398.5,223C 410.541,223.134 422.541,223.801 434.5,225C 482.977,235.977 513.643,265.477 526.5,313.5C 529.89,315.689 533.557,316.522 537.5,316C 542.211,311.62 547.211,307.62 552.5,304C 586.654,283.592 622.154,281.092 659,296.5C 665.5,294.333 672,292.167 678.5,290C 721.105,280.1 759.772,288.434 794.5,315C 838.857,310.888 875.524,325.554 904.5,359C 906.833,359.667 909.167,359.667 911.5,359C 927.027,342.735 945.361,330.735 966.5,323C 1012.77,309.264 1054.77,317.264 1092.5,347C 1121.4,343.891 1147.4,351.058 1170.5,368.5C 1179.58,364.694 1188.92,361.694 1198.5,359.5C 1224.29,318.932 1261.29,298.099 1309.5,297C 1325.54,282.478 1343.87,271.812 1364.5,265C 1405.97,253.876 1444.8,259.71 1481,282.5C 1493.41,257.421 1511.41,237.421 1535,222.5C 1583.65,197.106 1631.31,198.773 1678,227.5C 1687.21,224.119 1696.71,222.786 1706.5,223.5C 1718.2,188.971 1741.53,166.471 1776.5,156C 1796.86,106.226 1833.69,77.3923 1887,69.5C 1891.02,65.1399 1894.69,60.4732 1898,55.5C 1904.46,48.1922 1911.63,41.8589 1919.5,36.5 Z"/></g>
<g><path style="opacity:1" fill="#4b4b4b" d="M 1919.5,120.5 C 1919.5,148.167 1919.5,175.833 1919.5,203.5C 1860.87,205.329 1819.03,232.663 1794,285.5C 1788.14,300.277 1784.81,315.611 1784,331.5C 1782.08,335.004 1779.92,338.337 1777.5,341.5C 1752.24,328.29 1725.57,323.957 1697.5,328.5C 1699.35,323.814 1701.85,319.48 1705,315.5C 1717.87,302.897 1733.37,297.564 1751.5,299.5C 1751.29,291.786 1751.79,284.119 1753,276.5C 1764.06,238.938 1788.56,215.605 1826.5,206.5C 1828.43,201.215 1830.26,195.882 1832,190.5C 1849.6,152.776 1878.76,129.442 1919.5,120.5 Z"/></g>
<g><path style="opacity:1" fill="#4c4c4c" d="M -0.5,193.5 C 9.94797,204.399 16.1146,217.399 18,232.5C 56.7606,216.106 89.0939,224.44 115,257.5C 127.052,252.222 139.718,249.889 153,250.5C 171.502,250.958 188.835,255.625 205,264.5C 212.141,262.506 219.307,260.672 226.5,259C 294.884,251.188 345.55,277.188 378.5,337C 412.024,347.191 435.357,368.524 448.5,401C 473.724,401.777 493.724,412.277 508.5,432.5C 533.391,419.14 558.724,418.14 584.5,429.5C 597.116,420.362 611.116,414.196 626.5,411C 672.123,403.657 709.457,417.823 738.5,453.5C 741.106,454.652 743.773,454.818 746.5,454C 754.557,444.944 763.557,436.944 773.5,430C 816.493,404.537 860.993,401.704 907,421.5C 912.213,420.125 917.38,418.625 922.5,417C 970.678,409.504 1011.68,423.17 1045.5,458C 1065.7,458.4 1083.87,464.566 1100,476.5C 1108.48,469.844 1117.98,465.177 1128.5,462.5C 1130.75,457.674 1133.25,453.008 1136,448.5C 1164.8,407.016 1204.63,387.183 1255.5,389C 1287.43,364.252 1323.76,353.586 1364.5,357C 1380.13,345.521 1397.46,337.855 1416.5,334C 1472.62,325.201 1518.95,342.368 1555.5,385.5C 1566.79,388.228 1576.29,393.894 1584,402.5C 1583.86,392.517 1585.53,382.851 1589,373.5C 1604.79,342.861 1629.62,331.528 1663.5,339.5C 1626.07,359.788 1603.4,390.954 1595.5,433C 1585.24,436.71 1576.41,442.543 1569,450.5C 1540.51,435.032 1511.01,432.865 1480.5,444C 1448.56,458.7 1428.56,483.2 1420.5,517.5C 1404.87,518.475 1391.54,524.475 1380.5,535.5C 1349.78,508.741 1315.78,503.741 1278.5,520.5C 1235.07,497.796 1192.74,499.462 1151.5,525.5C 1110.41,515.107 1073.74,523.607 1041.5,551C 1032.09,559.994 1024.26,570.161 1018,581.5C 990.105,543.975 952.605,526.475 905.5,529C 865.771,501.036 822.438,493.703 775.5,507C 759.905,512.298 745.572,519.964 732.5,530C 730.167,530.667 727.833,530.667 725.5,530C 681.589,483.606 629.256,470.606 568.5,491C 560.546,494.311 552.879,498.144 545.5,502.5C 514.548,494.79 486.048,500.124 460,518.5C 438.541,504.093 415.707,501.593 391.5,511C 383.86,515.073 377.026,520.24 371,526.5C 366.255,506.927 354.422,493.927 335.5,487.5C 330.28,441.782 306.946,408.949 265.5,389C 245.056,380.904 224.056,378.237 202.5,381C 194.107,383.183 185.773,385.183 177.5,387C 174,384.167 170.5,381.333 167,378.5C 156.376,317.218 121.876,276.052 63.5,255C 42.4971,249.305 21.1637,247.472 -0.5,249.5C -0.5,230.833 -0.5,212.167 -0.5,193.5 Z"/></g>
<g><path style="opacity:1" fill="#717171" d="M 1919.5,203.5 C 1919.5,273.167 1919.5,342.833 1919.5,412.5C 1875.21,408.563 1844.04,426.896 1826,467.5C 1824.16,474.201 1822.33,480.868 1820.5,487.5C 1820.17,487.5 1819.83,487.5 1819.5,487.5C 1809.78,484.984 1799.94,484.984 1790,487.5C 1744.44,454.993 1695.94,449.826 1644.5,472C 1613.33,488.004 1591,512.171 1577.5,544.5C 1568.96,546.271 1560.96,549.438 1553.5,554C 1544.76,559.897 1536.76,566.73 1529.5,574.5C 1508.16,569.589 1487.16,570.756 1466.5,578C 1461.96,580.466 1457.29,582.633 1452.5,584.5C 1419.54,571.487 1386.54,571.487 1353.5,584.5C 1290.46,565.381 1236.63,579.714 1192,627.5C 1187.95,633.09 1183.79,638.59 1179.5,644C 1163.74,647.714 1149.74,654.88 1137.5,665.5C 1115.41,656.519 1093.24,656.186 1071,664.5C 1047.6,646.686 1021.1,638.519 991.5,640C 946.929,605.537 898.262,598.537 845.5,619C 835.169,623.828 825.502,629.661 816.5,636.5C 775.273,587.258 723.273,570.091 660.5,585C 639.165,591.492 620.498,602.326 604.5,617.5C 596.865,618.76 589.198,619.26 581.5,619C 558.241,586.544 526.574,572.211 486.5,576C 480.485,576.916 474.652,578.416 469,580.5C 443.003,552.062 411.17,542.562 373.5,552C 366.271,555.62 358.938,558.62 351.5,561C 344.293,551.118 335.293,543.452 324.5,538C 318.449,489.277 293.115,454.61 248.5,434C 215.408,421.27 182.408,421.436 149.5,434.5C 124.59,416.35 97.5898,412.516 68.5,423C 63.0927,425.452 57.9261,428.286 53,431.5C 47.0589,402.398 29.2255,386.398 -0.5,383.5C -0.5,338.833 -0.5,294.167 -0.5,249.5C 21.1637,247.472 42.4971,249.305 63.5,255C 121.876,276.052 156.376,317.218 167,378.5C 170.5,381.333 174,384.167 177.5,387C 185.773,385.183 194.107,383.183 202.5,381C 224.056,378.237 245.056,380.904 265.5,389C 306.946,408.949 330.28,441.782 335.5,487.5C 354.422,493.927 366.255,506.927 371,526.5C 377.026,520.24 383.86,515.073 391.5,511C 415.707,501.593 438.541,504.093 460,518.5C 486.048,500.124 514.548,494.79 545.5,502.5C 552.879,498.144 560.546,494.311 568.5,491C 629.256,470.606 681.589,483.606 725.5,530C 727.833,530.667 730.167,530.667 732.5,530C 745.572,519.964 759.905,512.298 775.5,507C 822.438,493.703 865.771,501.036 905.5,529C 952.605,526.475 990.105,543.975 1018,581.5C 1024.26,570.161 1032.09,559.994 1041.5,551C 1073.74,523.607 1110.41,515.107 1151.5,525.5C 1192.74,499.462 1235.07,497.796 1278.5,520.5C 1315.78,503.741 1349.78,508.741 1380.5,535.5C 1391.54,524.475 1404.87,518.475 1420.5,517.5C 1428.56,483.2 1448.56,458.7 1480.5,444C 1511.01,432.865 1540.51,435.032 1569,450.5C 1576.41,442.543 1585.24,436.71 1595.5,433C 1603.4,390.954 1626.07,359.788 1663.5,339.5C 1674.17,333.832 1685.5,330.165 1697.5,328.5C 1725.57,323.957 1752.24,328.29 1777.5,341.5C 1779.92,338.337 1782.08,335.004 1784,331.5C 1784.81,315.611 1788.14,300.277 1794,285.5C 1819.03,232.663 1860.87,205.329 1919.5,203.5 Z"/></g>
<g><path style="opacity:1" fill="#959595" d="M -0.5,383.5 C 29.2255,386.398 47.0589,402.398 53,431.5C 57.9261,428.286 63.0927,425.452 68.5,423C 97.5898,412.516 124.59,416.35 149.5,434.5C 182.408,421.436 215.408,421.27 248.5,434C 293.115,454.61 318.449,489.277 324.5,538C 335.293,543.452 344.293,551.118 351.5,561C 358.938,558.62 366.271,555.62 373.5,552C 411.17,542.562 443.003,552.062 469,580.5C 474.652,578.416 480.485,576.916 486.5,576C 526.574,572.211 558.241,586.544 581.5,619C 589.198,619.26 596.865,618.76 604.5,617.5C 620.498,602.326 639.165,591.492 660.5,585C 723.273,570.091 775.273,587.258 816.5,636.5C 825.502,629.661 835.169,623.828 845.5,619C 898.262,598.537 946.929,605.537 991.5,640C 1021.1,638.519 1047.6,646.686 1071,664.5C 1093.24,656.186 1115.41,656.519 1137.5,665.5C 1149.74,654.88 1163.74,647.714 1179.5,644C 1183.79,638.59 1187.95,633.09 1192,627.5C 1236.63,579.714 1290.46,565.381 1353.5,584.5C 1386.54,571.487 1419.54,571.487 1452.5,584.5C 1457.29,582.633 1461.96,580.466 1466.5,578C 1487.16,570.756 1508.16,569.589 1529.5,574.5C 1536.76,566.73 1544.76,559.897 1553.5,554C 1560.96,549.438 1568.96,546.271 1577.5,544.5C 1591,512.171 1613.33,488.004 1644.5,472C 1695.94,449.826 1744.44,454.993 1790,487.5C 1799.94,484.984 1809.78,484.984 1819.5,487.5C 1778.83,510.12 1756.16,544.787 1751.5,591.5C 1714.19,566.06 1673.86,559.893 1630.5,573C 1609.36,580.735 1591.03,592.735 1575.5,609C 1527.05,610.858 1489.05,631.525 1461.5,671C 1444.04,672.707 1428.2,678.54 1414,688.5C 1368.76,672.751 1327.59,679.918 1290.5,710C 1276.15,722.683 1265.31,737.849 1258,755.5C 1253.13,756.714 1248.46,758.381 1244,760.5C 1209.64,730.661 1170.97,723.328 1128,738.5C 1076.54,714.827 1028.7,720.494 984.5,755.5C 975.227,753.837 965.894,753.337 956.5,754C 947.168,755.792 938.002,758.292 929,761.5C 889.941,736.463 850.108,735.129 809.5,757.5C 789.441,748.212 768.441,744.879 746.5,747.5C 727.217,727.192 703.55,715.358 675.5,712C 635.291,665.932 585.291,649.932 525.5,664C 490.791,674.186 463.458,694.353 443.5,724.5C 441.099,725.358 439.099,726.691 437.5,728.5C 429.525,727.313 421.525,726.313 413.5,725.5C 406.314,701.652 390.314,688.319 365.5,685.5C 359.571,646.074 338.571,617.908 302.5,601C 269.647,587.699 237.981,590.032 207.5,608C 206.5,608.667 205.5,608.667 204.5,608C 199.291,603.122 193.791,598.622 188,594.5C 184.355,542.562 159.522,504.729 113.5,481C 101.588,475.938 89.2547,472.272 76.5,470C 58.3837,440.051 32.717,419.551 -0.5,408.5C -0.5,400.167 -0.5,391.833 -0.5,383.5 Z"/></g>
<g><path style="opacity:1" fill="#bababa" d="M -0.5,408.5 C 32.717,419.551 58.3837,440.051 76.5,470C 89.2547,472.272 101.588,475.938 113.5,481C 159.522,504.729 184.355,542.562 188,594.5C 193.791,598.622 199.291,603.122 204.5,608C 205.5,608.667 206.5,608.667 207.5,608C 237.981,590.032 269.647,587.699 302.5,601C 338.571,617.908 359.571,646.074 365.5,685.5C 390.314,688.319 406.314,701.652 413.5,725.5C 363.88,723.155 322.547,740.322 289.5,777C 288.207,777.49 286.873,777.657 285.5,777.5C 263.188,746.323 232.855,727.823 194.5,722C 181.833,720.32 169.166,720.153 156.5,721.5C 153.381,710.925 148.881,700.925 143,691.5C 137.335,634.505 108.835,593.338 57.5,568C 38.9899,560.039 19.6565,555.873 -0.5,555.5C -0.5,506.5 -0.5,457.5 -0.5,408.5 Z"/></g>
<g><path style="opacity:1" fill="#959595" d="M 1919.5,412.5 C 1919.5,423.167 1919.5,433.833 1919.5,444.5C 1905.87,451.957 1894.54,462.124 1885.5,475C 1862.77,473.598 1841.11,477.765 1820.5,487.5C 1822.33,480.868 1824.16,474.201 1826,467.5C 1844.04,426.896 1875.21,408.563 1919.5,412.5 Z"/></g>
<g><path style="opacity:1" fill="#bababa" d="M 1919.5,444.5 C 1919.5,489.833 1919.5,535.167 1919.5,580.5C 1889.21,583.947 1870.71,600.613 1864,630.5C 1863.45,637.553 1863.45,644.553 1864,651.5C 1844.42,635.889 1822.59,632.055 1798.5,640C 1786.66,644.507 1777.16,652.007 1770,662.5C 1735.63,645.305 1701.46,645.805 1667.5,664C 1648.32,675.683 1634.32,691.849 1625.5,712.5C 1613.73,713.432 1602.06,714.598 1590.5,716C 1530.31,685.213 1473.97,690.879 1421.5,733C 1410.79,742.865 1401.79,754.032 1394.5,766.5C 1360.05,774.456 1334.38,793.956 1317.5,825C 1286.38,825.305 1262.54,838.472 1246,864.5C 1221.81,854.166 1198.31,855.333 1175.5,868C 1172.35,870.312 1169.35,872.812 1166.5,875.5C 1133.77,853.171 1100.1,851.671 1065.5,871C 1063.83,872.5 1062.17,874 1060.5,875.5C 1037.84,861.502 1013.51,857.668 987.5,864C 967.368,869.54 951.368,880.707 939.5,897.5C 934.5,897.5 929.5,897.5 924.5,897.5C 920.258,896.032 915.758,895.366 911,895.5C 906.242,895.366 901.742,896.032 897.5,897.5C 874.167,897.5 850.833,897.5 827.5,897.5C 821.951,895.285 816.118,893.952 810,893.5C 806.591,894.622 803.091,894.789 799.5,894C 782.275,863.459 756.275,845.459 721.5,840C 696.398,837.245 673.065,842.245 651.5,855C 644.322,860.847 637.155,866.68 630,872.5C 622.507,869.235 614.674,867.568 606.5,867.5C 596.048,839.547 577.381,819.047 550.5,806C 545.167,804 539.833,802 534.5,800C 511.65,763.319 479.317,739.485 437.5,728.5C 439.099,726.691 441.099,725.358 443.5,724.5C 463.458,694.353 490.791,674.186 525.5,664C 585.291,649.932 635.291,665.932 675.5,712C 703.55,715.358 727.217,727.192 746.5,747.5C 768.441,744.879 789.441,748.212 809.5,757.5C 850.108,735.129 889.941,736.463 929,761.5C 938.002,758.292 947.168,755.792 956.5,754C 965.894,753.337 975.227,753.837 984.5,755.5C 1028.7,720.494 1076.54,714.827 1128,738.5C 1170.97,723.328 1209.64,730.661 1244,760.5C 1248.46,758.381 1253.13,756.714 1258,755.5C 1265.31,737.849 1276.15,722.683 1290.5,710C 1327.59,679.918 1368.76,672.751 1414,688.5C 1428.2,678.54 1444.04,672.707 1461.5,671C 1489.05,631.525 1527.05,610.858 1575.5,609C 1591.03,592.735 1609.36,580.735 1630.5,573C 1673.86,559.893 1714.19,566.06 1751.5,591.5C 1756.16,544.787 1778.83,510.12 1819.5,487.5C 1819.83,487.5 1820.17,487.5 1820.5,487.5C 1841.11,477.765 1862.77,473.598 1885.5,475C 1894.54,462.124 1905.87,451.957 1919.5,444.5 Z"/></g>
<g><path style="opacity:1" fill="#dddddd" d="M -0.5,555.5 C 19.6565,555.873 38.9899,560.039 57.5,568C 108.835,593.338 137.335,634.505 143,691.5C 148.881,700.925 153.381,710.925 156.5,721.5C 151.654,722.788 146.654,723.622 141.5,724C 110.904,698.748 76.5704,692.081 38.5,704C 36.3512,705.164 34.1846,706.33 32,707.5C 27.0973,694.359 21.0973,681.693 14,669.5C 12.5656,650.417 7.7323,632.417 -0.5,615.5C -0.5,595.5 -0.5,575.5 -0.5,555.5 Z"/></g>
<g><path style="opacity:1" fill="#dddddd" d="M 1919.5,580.5 C 1919.5,626.5 1919.5,672.5 1919.5,718.5C 1918.38,721.344 1917.38,724.344 1916.5,727.5C 1879.89,724.55 1853.06,739.217 1836,771.5C 1832.25,780.815 1829.92,790.481 1829,800.5C 1800.34,789.465 1775.68,795.465 1755,818.5C 1751.92,823 1749.08,827.667 1746.5,832.5C 1709.61,812.197 1675.28,815.697 1643.5,843C 1636.53,850.786 1630.2,858.953 1624.5,867.5C 1614.32,865.016 1603.98,863.516 1593.5,863C 1545.19,826.563 1492.86,819.563 1436.5,842C 1426.33,847.248 1416.66,853.248 1407.5,860C 1375.08,858.352 1344.91,865.852 1317,882.5C 1310.3,886.922 1304.13,891.922 1298.5,897.5C 1178.83,897.5 1059.17,897.5 939.5,897.5C 951.368,880.707 967.368,869.54 987.5,864C 1013.51,857.668 1037.84,861.502 1060.5,875.5C 1062.17,874 1063.83,872.5 1065.5,871C 1100.1,851.671 1133.77,853.171 1166.5,875.5C 1169.35,872.812 1172.35,870.312 1175.5,868C 1198.31,855.333 1221.81,854.166 1246,864.5C 1262.54,838.472 1286.38,825.305 1317.5,825C 1334.38,793.956 1360.05,774.456 1394.5,766.5C 1401.79,754.032 1410.79,742.865 1421.5,733C 1473.97,690.879 1530.31,685.213 1590.5,716C 1602.06,714.598 1613.73,713.432 1625.5,712.5C 1634.32,691.849 1648.32,675.683 1667.5,664C 1701.46,645.805 1735.63,645.305 1770,662.5C 1777.16,652.007 1786.66,644.507 1798.5,640C 1822.59,632.055 1844.42,635.889 1864,651.5C 1863.45,644.553 1863.45,637.553 1864,630.5C 1870.71,600.613 1889.21,583.947 1919.5,580.5 Z"/></g>
<g><path style="opacity:1" fill="#fefefe" d="M -0.5,615.5 C 7.7323,632.417 12.5656,650.417 14,669.5C 21.0973,681.693 27.0973,694.359 32,707.5C 34.1846,706.33 36.3512,705.164 38.5,704C 76.5704,692.081 110.904,698.748 141.5,724C 146.654,723.622 151.654,722.788 156.5,721.5C 169.166,720.153 181.833,720.32 194.5,722C 232.855,727.823 263.188,746.323 285.5,777.5C 286.988,779.489 288.655,781.322 290.5,783C 313.144,785.877 333.477,794.21 351.5,808C 392.165,801.292 429.332,809.792 463,833.5C 514.035,828.511 557.035,844.845 592,882.5C 596.012,887.208 599.512,892.208 602.5,897.5C 401.5,897.5 200.5,897.5 -0.5,897.5C -0.5,803.5 -0.5,709.5 -0.5,615.5 Z"/></g>
<g><path style="opacity:1" fill="#fefefe" d="M 1919.5,718.5 C 1919.5,778.167 1919.5,837.833 1919.5,897.5C 1712.5,897.5 1505.5,897.5 1298.5,897.5C 1304.13,891.922 1310.3,886.922 1317,882.5C 1344.91,865.852 1375.08,858.352 1407.5,860C 1416.66,853.248 1426.33,847.248 1436.5,842C 1492.86,819.563 1545.19,826.563 1593.5,863C 1603.98,863.516 1614.32,865.016 1624.5,867.5C 1630.2,858.953 1636.53,850.786 1643.5,843C 1675.28,815.697 1709.61,812.197 1746.5,832.5C 1749.08,827.667 1751.92,823 1755,818.5C 1775.68,795.465 1800.34,789.465 1829,800.5C 1829.92,790.481 1832.25,780.815 1836,771.5C 1853.06,739.217 1879.89,724.55 1916.5,727.5C 1917.38,724.344 1918.38,721.344 1919.5,718.5 Z"/></g>
<g><path style="opacity:1" fill="#dddddd" d="M 413.5,725.5 C 421.525,726.313 429.525,727.313 437.5,728.5C 479.317,739.485 511.65,763.319 534.5,800C 539.833,802 545.167,804 550.5,806C 577.381,819.047 596.048,839.547 606.5,867.5C 614.674,867.568 622.507,869.235 630,872.5C 637.155,866.68 644.322,860.847 651.5,855C 673.065,842.245 696.398,837.245 721.5,840C 756.275,845.459 782.275,863.459 799.5,894C 803.091,894.789 806.591,894.622 810,893.5C 816.118,893.952 821.951,895.285 827.5,897.5C 752.5,897.5 677.5,897.5 602.5,897.5C 599.512,892.208 596.012,887.208 592,882.5C 557.035,844.845 514.035,828.511 463,833.5C 429.332,809.792 392.165,801.292 351.5,808C 333.477,794.21 313.144,785.877 290.5,783C 288.655,781.322 286.988,779.489 285.5,777.5C 286.873,777.657 288.207,777.49 289.5,777C 322.547,740.322 363.88,723.155 413.5,725.5 Z"/></g>
<g><path style="opacity:1" fill="#dcdcdc" d="M 924.5,897.5 C 915.5,897.5 906.5,897.5 897.5,897.5C 901.742,896.032 906.242,895.366 911,895.5C 915.758,895.366 920.258,896.032 924.5,897.5 Z"/></g>
</svg>
