<?xml version="1.0" encoding="UTF-8"?>
<!DOCTYPE svg PUBLIC "-//W3C//DTD SVG 1.1//EN" "http://www.w3.org/Graphics/SVG/1.1/DTD/svg11.dtd">
<svg xmlns="http://www.w3.org/2000/svg" version="1.1" width="410px" height="404px" style="shape-rendering:geometricPrecision; text-rendering:geometricPrecision; image-rendering:optimizeQuality; fill-rule:evenodd; clip-rule:evenodd" xmlns:xlink="http://www.w3.org/1999/xlink">
<g><path style="opacity:0.998" fill="#ffe254" d="M 297.5,10.5 C 250.216,17.6835 202.883,24.6835 155.5,31.5C 154.274,31.4805 153.274,31.1471 152.5,30.5C 153.36,28.3862 155.027,27.2195 157.5,27C 202.488,18.1024 247.488,9.2691 292.5,0.5C 294.593,0.485754 296.426,1.15242 298,2.5C 298.801,5.36695 298.634,8.03362 297.5,10.5 Z"/></g>
<g><path style="opacity:0.995" fill="#ffdc36" d="M 297.5,10.5 C 295.478,19.2532 293.145,27.9199 290.5,36.5C 243.792,42.8868 197.125,49.5535 150.5,56.5C 150.689,47.6475 151.355,38.9808 152.5,30.5C 153.274,31.1471 154.274,31.4805 155.5,31.5C 202.883,24.6835 250.216,17.6835 297.5,10.5 Z"/></g>
<g><path style="opacity:0.997" fill="#fed62f" d="M 290.5,36.5 C 287.758,45.0596 285.424,53.7263 283.5,62.5C 282.833,62.5 282.5,62.8333 282.5,63.5C 281.655,64.6715 280.989,66.0048 280.5,67.5C 236.878,74.1127 193.211,80.446 149.5,86.5C 149.795,88.7354 149.461,90.7354 148.5,92.5C 148.5,90.8333 148.5,89.1667 148.5,87.5C 149.372,81.2111 149.705,74.8778 149.5,68.5C 149.5,67.8333 149.5,67.1667 149.5,66.5C 149.833,63.1667 150.167,59.8333 150.5,56.5C 197.125,49.5535 243.792,42.8868 290.5,36.5 Z"/></g>
<g><path style="opacity:0.99" fill="#8b73fd" d="M 387.5,44.5 C 388.332,45.3285 387.999,46.1618 386.5,47C 365.323,62.0889 344.323,77.4222 323.5,93C 322.748,93.6708 322.414,94.5041 322.5,95.5C 320.874,95.0617 319.207,94.7284 317.5,94.5C 309.155,95.8362 300.822,97.1695 292.5,98.5C 313.883,81.7823 335.55,65.449 357.5,49.5C 367.421,47.4021 377.421,45.7355 387.5,44.5 Z"/></g>
<g><path style="opacity:0.997" fill="#906dfd" d="M 387.5,44.5 C 396.194,42.7093 400.528,46.3759 400.5,55.5C 372.019,75.9128 343.685,96.5795 315.5,117.5C 317.715,112.068 320.215,106.735 323,101.5C 323.49,99.4546 323.323,97.4546 322.5,95.5C 322.414,94.5041 322.748,93.6708 323.5,93C 344.323,77.4222 365.323,62.0889 386.5,47C 387.999,46.1618 388.332,45.3285 387.5,44.5 Z"/></g>
<g><path style="opacity:0.983" fill="#4ec0ff" d="M 70.5,52.5 C 69.0484,53.3019 67.3817,53.8019 65.5,54C 51.921,64.6064 37.921,74.4397 23.5,83.5C 18.6784,75.1941 13.845,66.8608 9,58.5C 7.1144,49.9231 10.4477,44.9231 19,43.5C 36.1683,46.5557 53.3349,49.5557 70.5,52.5 Z"/></g>
<g><path style="opacity:0.989" fill="#857bfd" d="M 357.5,49.5 C 335.55,65.449 313.883,81.7823 292.5,98.5C 286.828,100.907 280.828,101.74 274.5,101C 273.934,100.005 273.267,99.172 272.5,98.5C 274.757,88.0611 277.424,77.7277 280.5,67.5C 280.989,66.0048 281.655,64.6715 282.5,63.5C 283.167,63.5 283.5,63.1667 283.5,62.5C 308.213,58.4241 332.879,54.0908 357.5,49.5 Z"/></g>
<g><path style="opacity:0.988" fill="#54b8ff" d="M 70.5,52.5 C 76.1357,53.6269 81.8024,54.6269 87.5,55.5C 69.1162,69.8847 50.4495,83.8847 31.5,97.5C 28.8486,92.8686 26.1819,88.2019 23.5,83.5C 37.921,74.4397 51.921,64.6064 65.5,54C 67.3817,53.8019 69.0484,53.3019 70.5,52.5 Z"/></g>
<g><path style="opacity:0.995" fill="#9467fd" d="M 400.5,55.5 C 399.908,58.6907 398.741,61.6907 397,64.5C 391.726,74.0611 386.226,83.3945 380.5,92.5C 380.103,91.475 379.437,91.3083 378.5,92C 352.218,112.129 325.551,131.629 298.5,150.5C 303.103,141.626 307.437,132.626 311.5,123.5C 312.833,121.5 314.167,119.5 315.5,117.5C 343.685,96.5795 372.019,75.9128 400.5,55.5 Z"/></g>
<g><path style="opacity:0.988" fill="#59b1ff" d="M 87.5,55.5 C 95.6647,56.932 103.665,58.5987 111.5,60.5C 88.204,76.826 65.204,93.6594 42.5,111C 41.552,111.483 40.552,111.649 39.5,111.5C 36.4693,107.113 33.8026,102.446 31.5,97.5C 50.4495,83.8847 69.1162,69.8847 87.5,55.5 Z"/></g>
<g><path style="opacity:0.993" fill="#5eabff" d="M 111.5,60.5 C 118.236,61.0671 124.902,62.0671 131.5,63.5C 104.349,83.8034 77.016,103.97 49.5,124C 48.552,124.483 47.552,124.649 46.5,124.5C 43.9123,120.326 41.579,115.993 39.5,111.5C 40.552,111.649 41.552,111.483 42.5,111C 65.204,93.6594 88.204,76.826 111.5,60.5 Z"/></g>
<g><path style="opacity:0.993" fill="#63a4ff" d="M 131.5,63.5 C 137.461,64.7157 143.461,65.7157 149.5,66.5C 149.5,67.1667 149.5,67.8333 149.5,68.5C 117.833,91.8333 86.1667,115.167 54.5,138.5C 51.8333,133.833 49.1667,129.167 46.5,124.5C 47.552,124.649 48.552,124.483 49.5,124C 77.016,103.97 104.349,83.8034 131.5,63.5 Z"/></g>
<g><path style="opacity:1" fill="#fed028" d="M 280.5,67.5 C 277.424,77.7277 274.757,88.0611 272.5,98.5C 230.98,104.693 189.48,111.027 148,117.5C 147.536,116.906 147.369,116.239 147.5,115.5C 147.5,113.833 147.5,112.167 147.5,110.5C 148.307,104.536 148.64,98.5362 148.5,92.5C 149.461,90.7354 149.795,88.7354 149.5,86.5C 193.211,80.446 236.878,74.1127 280.5,67.5 Z"/></g>
<g><path style="opacity:0.997" fill="#689ffe" d="M 149.5,68.5 C 149.705,74.8778 149.372,81.2111 148.5,87.5C 119.527,108.48 90.8608,129.813 62.5,151.5C 59.5968,147.37 56.9301,143.037 54.5,138.5C 86.1667,115.167 117.833,91.8333 149.5,68.5 Z"/></g>
<g><path style="opacity:0.997" fill="#6d99fe" d="M 148.5,87.5 C 148.5,89.1667 148.5,90.8333 148.5,92.5C 148.64,98.5362 148.307,104.536 147.5,110.5C 122.009,129.079 96.3427,147.412 70.5,165.5C 67.331,161.167 64.6643,156.5 62.5,151.5C 90.8608,129.813 119.527,108.48 148.5,87.5 Z"/></g>
<g><path style="opacity:0.993" fill="#9a60fd" d="M 380.5,92.5 C 375.227,103.092 369.56,113.425 363.5,123.5C 363.103,122.475 362.437,122.308 361.5,123C 336.833,141.333 312.167,159.667 287.5,178C 286.552,178.483 285.552,178.649 284.5,178.5C 288.437,170.959 292.104,163.293 295.5,155.5C 296.737,154.035 297.737,152.368 298.5,150.5C 325.551,131.629 352.218,112.129 378.5,92C 379.437,91.3083 380.103,91.475 380.5,92.5 Z"/></g>
<g><path style="opacity:1" fill="#feca24" d="M 322.5,95.5 C 323.323,97.4546 323.49,99.4546 323,101.5C 320.215,106.735 317.715,112.068 315.5,117.5C 314.167,119.5 312.833,121.5 311.5,123.5C 256.153,131.407 200.819,139.407 145.5,147.5C 145.5,144.833 145.5,142.167 145.5,139.5C 146.167,131.5 146.833,123.5 147.5,115.5C 147.369,116.239 147.536,116.906 148,117.5C 189.48,111.027 230.98,104.693 272.5,98.5C 273.267,99.172 273.934,100.005 274.5,101C 280.828,101.74 286.828,100.907 292.5,98.5C 300.822,97.1695 309.155,95.8362 317.5,94.5C 319.207,94.7284 320.874,95.0617 322.5,95.5 Z"/></g>
<g><path style="opacity:0.997" fill="#7392fe" d="M 147.5,110.5 C 147.5,112.167 147.5,113.833 147.5,115.5C 146.833,123.5 146.167,131.5 145.5,139.5C 145.665,136.15 145.498,132.817 145,129.5C 122.884,146.464 100.384,162.797 77.5,178.5C 74.8998,174.299 72.5665,169.966 70.5,165.5C 96.3427,147.412 122.009,129.079 147.5,110.5 Z"/></g>
<g><path style="opacity:1" fill="#fec41e" d="M 311.5,123.5 C 307.437,132.626 303.103,141.626 298.5,150.5C 297.737,152.368 296.737,154.035 295.5,155.5C 260.908,160.932 226.241,165.932 191.5,170.5C 179.708,172.209 168.041,174.542 156.5,177.5C 147.168,181.669 142.835,178.669 143.5,168.5C 144.49,162.355 144.823,156.022 144.5,149.5C 145.338,149.158 145.672,148.492 145.5,147.5C 200.819,139.407 256.153,131.407 311.5,123.5 Z"/></g>
<g><path style="opacity:0.993" fill="#9e5afd" d="M 363.5,123.5 C 358.42,133.327 353.087,142.994 347.5,152.5C 321.5,171.167 295.5,189.833 269.5,208.5C 272.833,201.833 276.167,195.167 279.5,188.5C 281.167,185.167 282.833,181.833 284.5,178.5C 285.552,178.649 286.552,178.483 287.5,178C 312.167,159.667 336.833,141.333 361.5,123C 362.437,122.308 363.103,122.475 363.5,123.5 Z"/></g>
<g><path style="opacity:0.995" fill="#778cfe" d="M 145.5,139.5 C 145.5,142.167 145.5,144.833 145.5,147.5C 145.672,148.492 145.338,149.158 144.5,149.5C 144.565,149.062 144.399,148.728 144,148.5C 124.903,163.437 105.403,177.77 85.5,191.5C 82.5968,187.37 79.9301,183.037 77.5,178.5C 100.384,162.797 122.884,146.464 145,129.5C 145.498,132.817 145.665,136.15 145.5,139.5 Z"/></g>
<g><path style="opacity:0.994" fill="#7b86fe" d="M 144.5,149.5 C 144.823,156.022 144.49,162.355 143.5,168.5C 126.5,180.5 109.5,192.5 92.5,204.5C 89.8998,200.299 87.5665,195.966 85.5,191.5C 105.403,177.77 124.903,163.437 144,148.5C 144.399,148.728 144.565,149.062 144.5,149.5 Z"/></g>
<g><path style="opacity:1" fill="#febe18" d="M 295.5,155.5 C 292.104,163.293 288.437,170.959 284.5,178.5C 282.833,181.833 281.167,185.167 279.5,188.5C 249.756,192.368 220.089,196.701 190.5,201.5C 189.893,201.376 189.56,201.043 189.5,200.5C 189.5,198.5 189.5,196.5 189.5,194.5C 191.257,188.557 192.591,182.39 193.5,176C 193.693,173.992 193.026,172.492 191.5,171.5C 191.5,171.167 191.5,170.833 191.5,170.5C 226.241,165.932 260.908,160.932 295.5,155.5 Z"/></g>
<g><path style="opacity:0.992" fill="#a354fd" d="M 347.5,152.5 C 341.737,163.033 335.737,173.366 329.5,183.5C 305.114,201.887 280.447,219.887 255.5,237.5C 257.896,231.708 260.563,226.041 263.5,220.5C 265.5,216.5 267.5,212.5 269.5,208.5C 295.5,189.833 321.5,171.167 347.5,152.5 Z"/></g>
<g><path style="opacity:0.993" fill="#817ffd" d="M 143.5,168.5 C 142.835,178.669 147.168,181.669 156.5,177.5C 156.611,178.117 156.944,178.617 157.5,179C 138.63,192.392 119.964,205.892 101.5,219.5C 98.263,214.701 95.263,209.701 92.5,204.5C 109.5,192.5 126.5,180.5 143.5,168.5 Z"/></g>
<g><path style="opacity:0.996" fill="#8779fd" d="M 191.5,170.5 C 191.5,170.833 191.5,171.167 191.5,171.5C 164.12,192.212 136.453,212.546 108.5,232.5C 105.773,228.423 103.439,224.09 101.5,219.5C 119.964,205.892 138.63,192.392 157.5,179C 156.944,178.617 156.611,178.117 156.5,177.5C 168.041,174.542 179.708,172.209 191.5,170.5 Z"/></g>
<g><path style="opacity:0.996" fill="#8b73fd" d="M 191.5,171.5 C 193.026,172.492 193.693,173.992 193.5,176C 192.591,182.39 191.257,188.557 189.5,194.5C 189.483,192.972 188.816,192.472 187.5,193C 163.649,210.697 139.983,228.53 116.5,246.5C 113.469,242.113 110.803,237.446 108.5,232.5C 136.453,212.546 164.12,192.212 191.5,171.5 Z"/></g>
<g><path style="opacity:1" fill="#feb813" d="M 279.5,188.5 C 276.167,195.167 272.833,201.833 269.5,208.5C 267.5,212.5 265.5,216.5 263.5,220.5C 237.142,224.313 210.809,228.313 184.5,232.5C 183.571,231.311 183.238,229.978 183.5,228.5C 184.627,218.857 186.627,209.524 189.5,200.5C 189.56,201.043 189.893,201.376 190.5,201.5C 220.089,196.701 249.756,192.368 279.5,188.5 Z"/></g>
<g><path style="opacity:0.991" fill="#a94dfd" d="M 329.5,183.5 C 323.1,195.966 316.433,208.299 309.5,220.5C 285.573,237.087 261.906,254.087 238.5,271.5C 240.229,267.042 242.229,262.709 244.5,258.5C 247.928,251.308 251.595,244.308 255.5,237.5C 280.447,219.887 305.114,201.887 329.5,183.5 Z"/></g>
<g><path style="opacity:0.995" fill="#9369fd" d="M 189.5,194.5 C 189.5,196.5 189.5,198.5 189.5,200.5C 186.627,209.524 184.627,218.857 183.5,228.5C 182.074,231.299 182.408,233.966 184.5,236.5C 166.296,248.046 148.963,260.713 132.5,274.5C 126.803,265.446 121.469,256.113 116.5,246.5C 139.983,228.53 163.649,210.697 187.5,193C 188.816,192.472 189.483,192.972 189.5,194.5 Z"/></g>
<g><path style="opacity:1" fill="#fdb113" d="M 263.5,220.5 C 260.563,226.041 257.896,231.708 255.5,237.5C 251.595,244.308 247.928,251.308 244.5,258.5C 233.902,260.256 223.569,261.59 213.5,262.5C 213.909,258.124 214.575,253.79 215.5,249.5C 217.411,243.75 218.244,237.75 218,231.5C 216.087,229.813 213.92,229.313 211.5,230C 203.5,232.5 195.5,235 187.5,237.5C 186.416,237.315 185.416,236.982 184.5,236.5C 182.408,233.966 182.074,231.299 183.5,228.5C 183.238,229.978 183.571,231.311 184.5,232.5C 210.809,228.313 237.142,224.313 263.5,220.5 Z"/></g>
<g><path style="opacity:0.998" fill="#9d5cfd" d="M 215.5,249.5 C 192.5,266.167 169.5,282.833 146.5,299.5C 141.58,291.328 136.913,282.995 132.5,274.5C 148.963,260.713 166.296,248.046 184.5,236.5C 185.416,236.982 186.416,237.315 187.5,237.5C 195.5,235 203.5,232.5 211.5,230C 213.92,229.313 216.087,229.813 218,231.5C 218.244,237.75 217.411,243.75 215.5,249.5 Z"/></g>
<g><path style="opacity:0.99" fill="#b043fd" d="M 309.5,220.5 C 297.485,241.868 285.485,263.202 273.5,284.5C 273.103,283.475 272.437,283.308 271.5,284C 241.167,306.333 210.833,328.667 180.5,351C 179.177,351.816 178.511,352.983 178.5,354.5C 174.346,348.87 170.679,342.87 167.5,336.5C 178.991,327.921 190.657,319.588 202.5,311.5C 201.534,316.148 201.034,320.814 201,325.5C 203.626,329.072 206.626,329.405 210,326.5C 219.53,308.105 229.03,289.772 238.5,271.5C 261.906,254.087 285.573,237.087 309.5,220.5 Z"/></g>
<g><path style="opacity:0.997" fill="#a354fd" d="M 215.5,249.5 C 214.575,253.79 213.909,258.124 213.5,262.5C 212.5,265.833 211.5,269.167 210.5,272.5C 210.565,272.062 210.399,271.728 210,271.5C 192.167,284.667 174.333,297.833 156.5,311C 155.552,311.483 154.552,311.649 153.5,311.5C 151.167,307.5 148.833,303.5 146.5,299.5C 169.5,282.833 192.5,266.167 215.5,249.5 Z"/></g>
<g><path style="opacity:1" fill="#fda814" d="M 244.5,258.5 C 242.229,262.709 240.229,267.042 238.5,271.5C 229.03,289.772 219.53,308.105 210,326.5C 206.626,329.405 203.626,329.072 201,325.5C 201.034,320.814 201.534,316.148 202.5,311.5C 205.676,298.62 208.343,285.62 210.5,272.5C 211.5,269.167 212.5,265.833 213.5,262.5C 223.569,261.59 233.902,260.256 244.5,258.5 Z"/></g>
<g><path style="opacity:0.995" fill="#a94cfd" d="M 210.5,272.5 C 208.343,285.62 205.676,298.62 202.5,311.5C 190.657,319.588 178.991,327.921 167.5,336.5C 162.833,328.167 158.167,319.833 153.5,311.5C 154.552,311.649 155.552,311.483 156.5,311C 174.333,297.833 192.167,284.667 210,271.5C 210.399,271.728 210.565,272.062 210.5,272.5 Z"/></g>
<g><path style="opacity:0.969" fill="#ba37fe" d="M 273.5,284.5 C 253.811,320.712 233.478,356.545 212.5,392C 206.415,394.763 201.248,393.596 197,388.5C 190.554,377.272 184.388,365.939 178.5,354.5C 178.511,352.983 179.177,351.816 180.5,351C 210.833,328.667 241.167,306.333 271.5,284C 272.437,283.308 273.103,283.475 273.5,284.5 Z"/></g>
</svg>
